<?xml version="1.0" encoding="UTF-8" standalone="no"?>
<!-- Created with Inkscape (http://www.inkscape.org/) -->

<svg
   xmlns:dc="http://purl.org/dc/elements/1.1/"
   xmlns:cc="http://creativecommons.org/ns#"
   xmlns:rdf="http://www.w3.org/1999/02/22-rdf-syntax-ns#"
   xmlns:svg="http://www.w3.org/2000/svg"
   xmlns="http://www.w3.org/2000/svg"
   xmlns:sodipodi="http://sodipodi.sourceforge.net/DTD/sodipodi-0.dtd"
   xmlns:inkscape="http://www.inkscape.org/namespaces/inkscape"
   version="1.1"
   id="svg2"
   xml:space="preserve"
   width="1920"
   height="1080"
   viewBox="0 0 1920 1080"
   sodipodi:docname="Фон программыai.svg"
   inkscape:version="0.92.5 (2060ec1f9f, 2020-04-08)"><metadata
     id="metadata8"><rdf:RDF><cc:Work
         rdf:about=""><dc:format>image/svg+xml</dc:format><dc:type
           rdf:resource="http://purl.org/dc/dcmitype/StillImage" /><dc:title></dc:title></cc:Work></rdf:RDF></metadata><defs
     id="defs6"><clipPath
       clipPathUnits="userSpaceOnUse"
       id="clipPath20"><path
         d="M 0,0 H 1357.041 V 850.394 H 0 Z"
         id="path18"
         inkscape:connector-curvature="0" /></clipPath></defs><sodipodi:namedview
     pagecolor="#ffffff"
     bordercolor="#666666"
     borderopacity="1"
     objecttolerance="10"
     gridtolerance="10"
     guidetolerance="10"
     inkscape:pageopacity="0"
     inkscape:pageshadow="2"
     inkscape:window-width="1848"
     inkscape:window-height="1017"
     id="namedview4"
     showgrid="false"
     inkscape:zoom="0.4723091"
     inkscape:cx="1065.0713"
     inkscape:cy="535.31875"
     inkscape:window-x="72"
     inkscape:window-y="27"
     inkscape:window-maximized="1"
     inkscape:current-layer="g10" /><g
     id="g10"
     inkscape:groupmode="layer"
     inkscape:label="camouflage-6031029"
     transform="matrix(1.3333333,0,0,-1.3333333,0,1080.0001)"><path
       d="M 0.20864942,-3.1560928 H 1440.2087 V 811.60775 H 0.20864942 Z"
       style="fill:#344a33;fill-opacity:1;fill-rule:nonzero;stroke:none;stroke-width:1.00830185"
       id="path12"
       inkscape:connector-curvature="0" /><g
       id="g14"
       transform="matrix(1.0629577,0,0,0.96390855,-0.37502952,-4.0421478)"><g
         id="g16"
         clip-path="url(#clipPath20)"><g
           id="g22"
           transform="translate(603.2441,857.943)"><path
             d="m 0,0 c -11.565,-3.653 -24.113,-0.326 -36.196,-1.379 -12.083,-1.053 -25.676,-10.281 -23.324,-22.18 2.388,-12.077 19.089,-16.63 22.402,-28.488 2.972,-10.642 -6.974,-21.076 -17.618,-24.044 -10.644,-2.968 -21.974,-1.103 -32.997,-1.876 -11.023,-0.773 -23.246,-5.548 -26.863,-15.989 -4.37,-12.619 6.132,-25.481 17.194,-32.963 7.297,-4.935 15.497,-9.029 24.289,-9.585 15.385,-0.974 29.078,8.752 43.311,14.677 14.233,5.925 34.126,6.299 41.474,-7.255 -12.26,-6.04 -23.309,-14.526 -32.308,-24.813 13.613,-6.136 28.84,-8.645 43.701,-7.202 3.016,-4.077 -3.905,-7.96 -6.79,-12.132 -5.081,-7.345 5.81,-17.314 14.27,-14.45 8.459,2.865 12.57,12.454 14.021,21.267 3.804,23.105 -4.468,47.861 -21.398,64.037 20.257,4.745 42.652,-0.813 58.342,-14.478 7.516,-6.547 13.627,-14.854 22.234,-19.883 16.272,-9.507 37.125,-4.943 54.277,2.862 3.416,1.554 6.911,3.333 9.144,6.349 4.729,6.384 1.787,16.005 -4.113,21.326 -5.902,5.321 -13.884,7.515 -21.455,9.926 -12.33,3.926 -24.343,8.847 -35.883,14.701 -5.068,2.571 -10.543,5.946 -11.828,11.482 -1.352,5.819 2.788,11.79 8.093,14.538 5.304,2.748 11.497,3.029 17.466,3.254 28.009,1.056 56.018,2.111 84.026,3.167 5.672,0.214 11.562,0.484 16.58,3.135 5.017,2.65 8.869,8.428 7.409,13.912 -2.02,7.585 -11.558,9.511 -18.552,13.074 -6.995,3.563 -11.555,18.877 -3.909,20.65 z"
             style="fill:#463a28;fill-opacity:1;fill-rule:evenodd;stroke:none"
             id="path24"
             inkscape:connector-curvature="0" /></g><g
           id="g26"
           transform="translate(1077.5049,369.5959)"><path
             d="m 0,0 c -11.566,-3.652 -24.114,-0.326 -36.197,-1.379 -12.083,-1.053 -25.676,-10.281 -23.324,-22.18 2.388,-12.077 19.089,-16.63 22.402,-28.488 2.973,-10.642 -6.974,-21.075 -17.617,-24.044 -10.645,-2.968 -21.975,-1.102 -32.998,-1.876 -11.023,-0.773 -23.245,-5.547 -26.862,-15.988 -4.371,-12.62 6.131,-25.482 17.193,-32.963 7.297,-4.936 15.498,-9.029 24.289,-9.586 15.386,-0.974 29.078,8.753 43.311,14.678 14.234,5.924 34.127,6.299 41.474,-7.255 -12.26,-6.041 -23.309,-14.526 -32.307,-24.814 13.612,-6.135 28.839,-8.645 43.7,-7.201 3.016,-4.078 -3.905,-7.961 -6.79,-12.133 -5.081,-7.344 5.811,-17.314 14.27,-14.45 8.459,2.866 12.57,12.454 14.021,21.267 3.804,23.105 -4.468,47.861 -21.398,64.038 20.257,4.744 42.652,-0.814 58.342,-14.479 7.516,-6.546 13.627,-14.854 22.234,-19.882 16.272,-9.507 37.125,-4.944 54.278,2.862 3.416,1.554 6.91,3.333 9.143,6.348 4.73,6.384 1.787,16.005 -4.113,21.327 -5.902,5.32 -13.884,7.514 -21.455,9.926 -12.33,3.925 -24.343,8.846 -35.882,14.7 -5.069,2.571 -10.543,5.946 -11.829,11.482 -1.351,5.819 2.788,11.79 8.093,14.538 5.304,2.748 11.498,3.03 17.467,3.254 28.008,1.056 56.017,2.111 84.026,3.167 5.671,0.214 11.561,0.485 16.579,3.135 5.018,2.651 8.87,8.429 7.41,13.912 -2.02,7.586 -11.559,9.512 -18.553,13.074 -6.995,3.563 -11.555,18.877 -3.908,20.651 z"
             style="fill:#463a28;fill-opacity:1;fill-rule:evenodd;stroke:none"
             id="path28"
             inkscape:connector-curvature="0" /></g><g
           id="g30"
           transform="translate(117.9639,631.382)"><path
             d="m 0,0 c 8.766,-1.117 17.915,-6.354 19.856,-14.975 2.969,-13.19 -11.535,-28.512 -2.991,-38.99 3.802,-4.663 10.661,-5.514 16.606,-4.594 5.946,0.921 11.661,3.237 17.668,3.567 4.909,5.729 2.562,14.51 -0.573,21.373 -3.134,6.863 -6.88,14.609 -3.996,21.58 3.151,7.618 12.522,10.197 20.7,11.237 8.178,1.04 17.404,2.017 22.514,8.486 4.414,5.587 4.111,13.911 0.66,20.139 -3.45,6.228 -9.506,10.623 -15.886,13.783 -4.906,2.43 -10.341,4.28 -15.777,3.633 C 43.011,43.361 33.839,21.961 17.982,22.834 11.445,35.887 2.414,47.686 -8.479,57.404 c -3.318,2.961 -7,5.823 -11.368,6.661 -4.368,0.839 -9.547,-0.99 -11.173,-5.13 C -35.509,47.502 -15.8,38.855 -19.398,28.683 -22.187,20.802 -41.196,22.707 -45.986,15.686 -61.146,-6.533 -10.349,1.32 0,0"
             style="fill:#463a28;fill-opacity:1;fill-rule:evenodd;stroke:none"
             id="path32"
             inkscape:connector-curvature="0" /></g><g
           id="g34"
           transform="translate(29.1421,443.6042)"><path
             d="M 0,0 C 12.155,-2.427 24.043,-9.963 28.202,-21.64 33.642,-36.912 21.917,-55.727 5.811,-57.572 11.932,-66 19.058,-75.083 29.31,-76.923 c 11.284,-2.027 22.523,6.09 27.44,16.446 4.917,10.356 4.786,22.359 3.589,33.762 7.88,1.112 15.172,-5.734 17.178,-13.435 2.005,-7.7 -0.007,-15.847 -2.54,-23.39 -1.065,-3.168 -2.234,-6.568 -1.294,-9.776 2.196,-7.503 12.545,-7.465 20.359,-7.715 7.814,-0.25 17.69,-7.668 12.826,-13.789 -13.428,-0.551 -25.897,-6.645 -38.705,-10.716 -12.808,-4.07 -27.676,-5.89 -38.966,1.4 -3.273,2.112 -6.267,4.989 -10.1,5.683 -9.36,1.697 -15.335,-12.411 -9.555,-19.966 5.779,-7.556 17.325,-8.123 26.151,-4.576 6.816,0.954 13.022,-7.228 10.265,-13.535 -1.172,-2.681 -3.478,-4.692 -5,-7.192 -4.136,-6.794 -0.856,-16.925 6.478,-20.006 7.333,-3.081 16.864,1.667 18.821,9.377 1.114,4.386 0.039,9.077 0.956,13.509 1.955,9.455 14.342,14.965 22.673,10.086 8.332,-4.88 9.586,-18.378 2.296,-24.709 -1.445,-1.256 -3.132,-2.244 -4.396,-3.682 -6.484,-7.368 4.85,-19.481 14.222,-16.567 9.373,2.914 13.83,13.722 14.754,23.494 0.925,9.771 -0.391,19.931 2.864,29.191 0.732,2.081 1.767,4.181 3.585,5.43 6.02,4.135 13.147,-3.921 15.023,-10.979 8.52,-32.05 -14.286,-68.887 -46.773,-75.55 -4.754,-0.976 -9.86,-1.481 -13.729,-4.411 -5.491,-4.159 -6.743,-11.781 -7.356,-18.642 -2.925,-32.767 -0.906,-65.97 5.969,-98.141 -10.97,-2.828 -18.164,11.178 -20.245,22.314 -3.475,18.597 -5.24,37.514 -5.264,56.434 -0.017,13.283 -0.617,29.32 -12.161,35.892 -9.577,5.453 -22.613,0.5 -28.819,-8.608 -6.206,-9.107 -6.795,-21 -4.957,-31.866 -14.036,0.751 -26.126,11.082 -32.893,23.403 -6.767,12.32 -9.164,26.491 -11.458,40.358 -6.532,39.483 -13.002,79.611 -10.527,119.766 C -47.752,-31.511 -45.722,9.128 0,0"
             style="fill:#463a28;fill-opacity:1;fill-rule:evenodd;stroke:none"
             id="path36"
             inkscape:connector-curvature="0" /></g><g
           id="g38"
           transform="translate(883.749,809.8644)"><path
             d="M 0,0 C 12.155,-2.427 24.043,-9.963 28.202,-21.64 33.642,-36.912 21.917,-55.727 5.811,-57.572 11.932,-66 19.059,-75.083 29.31,-76.924 c 11.284,-2.026 22.524,6.09 27.44,16.446 4.917,10.357 4.785,22.36 3.59,33.762 7.879,1.113 15.172,-5.733 17.177,-13.434 2.005,-7.7 -0.006,-15.847 -2.54,-23.39 -1.065,-3.168 -2.234,-6.568 -1.294,-9.776 2.197,-7.503 12.546,-7.464 20.359,-7.715 7.814,-0.25 17.689,-7.668 12.826,-13.789 -13.428,-0.55 -25.897,-6.646 -38.705,-10.716 -12.808,-4.07 -27.676,-5.89 -38.966,1.399 -3.272,2.113 -6.266,4.99 -10.099,5.684 -9.361,1.697 -15.335,-12.411 -9.557,-19.966 5.779,-7.557 17.325,-8.124 26.152,-4.576 6.817,0.954 13.023,-7.229 10.265,-13.535 -1.172,-2.682 -3.478,-4.692 -4.999,-7.192 -4.137,-6.795 -0.856,-16.925 6.477,-20.007 7.333,-3.081 16.864,1.668 18.822,9.377 1.113,4.387 0.039,9.078 0.955,13.509 1.955,9.456 14.342,14.966 22.674,10.086 8.331,-4.879 9.585,-18.378 2.295,-24.709 -1.446,-1.255 -3.132,-2.244 -4.396,-3.681 -6.484,-7.369 4.85,-19.482 14.223,-16.568 9.372,2.914 13.83,13.723 14.754,23.494 0.924,9.772 -0.392,19.932 2.863,29.192 0.731,2.081 1.767,4.18 3.585,5.43 6.02,4.135 13.147,-3.921 15.023,-10.979 8.52,-32.05 -14.286,-68.888 -46.773,-75.551 -4.754,-0.975 -9.86,-1.48 -13.729,-4.41 -5.492,-4.159 -6.743,-11.78 -7.356,-18.642 -2.926,-32.767 -0.906,-65.97 5.969,-98.141 -10.97,-2.828 -18.163,11.177 -20.244,22.313 -3.476,18.598 -5.241,37.515 -5.265,56.435 -0.018,13.283 -0.616,29.32 -12.16,35.892 -9.578,5.453 -22.614,0.499 -28.82,-8.608 -6.206,-9.107 -6.795,-21 -4.957,-31.866 -14.036,0.752 -26.126,11.083 -32.893,23.403 -6.767,12.319 -9.163,26.491 -11.458,40.358 -6.532,39.484 -13.002,79.612 -10.527,119.766 C -47.752,-31.512 -45.722,9.128 0,0"
             style="fill:#463a28;fill-opacity:1;fill-rule:evenodd;stroke:none"
             id="path40"
             inkscape:connector-curvature="0" /></g><g
           id="g42"
           transform="translate(481.5234,367.5714)"><path
             d="m 0,0 c -9.998,-0.146 -20.35,-0.371 -29.395,-4.637 -9.043,-4.265 -16.435,-13.759 -14.96,-23.65 0.288,-1.934 0.957,-3.908 2.406,-5.221 1.695,-1.535 4.122,-1.894 6.398,-2.114 8.535,-0.827 17.166,-0.666 25.664,0.477 8.61,1.16 17.665,3.275 25.739,0.07 8.074,-3.206 13.283,-14.75 6.996,-20.745 -1.267,-1.208 -2.844,-2.046 -4.145,-3.217 -6.077,-5.47 -3.103,-16.815 4.292,-20.3 7.396,-3.486 16.651,-0.262 22.158,5.78 5.509,6.042 7.931,14.272 9.262,22.338 0.584,3.543 1.252,7.553 4.23,9.558 1.881,1.267 4.278,1.412 6.545,1.485 6.402,0.205 13.015,0.115 18.901,-2.41 5.886,-2.525 10.91,-8.052 10.992,-14.456 0.058,-4.535 -2.296,-9.028 -1.32,-13.458 1.695,-7.695 13.392,-9.549 18.962,-3.975 5.57,5.576 5.304,15.068 1.534,21.988 -3.771,6.919 -10.263,11.866 -16.566,16.596 8.742,8.79 23.321,7.981 33.876,14.48 13.73,8.454 17.207,28.389 10.274,42.943 -6.935,14.556 -21.892,23.956 -37.439,28.224 -7.432,2.04 -18.649,0.191 -18.186,-7.502 0.166,-2.747 2.002,-5.068 3.755,-7.19 4.915,-5.946 9.83,-11.893 14.745,-17.839 -13.832,2.105 -27.527,5.117 -40.965,9.009 -8.217,2.38 -17.4,6.092 -20.118,14.204 -1.394,4.159 -0.755,8.743 -1.79,13.005 -1.726,7.102 -8.53,12.642 -15.834,12.892 C 18.707,66.585 11.54,61.523 9.332,54.557 5.817,43.46 14.471,31.998 24.387,25.902 45.191,13.112 75.707,16.388 94.103,1.827 83.133,-5.182 65.577,-0.264 52.971,0.073 35.319,0.546 17.653,0.26 0,0"
             style="fill:#463a28;fill-opacity:1;fill-rule:evenodd;stroke:none"
             id="path44"
             inkscape:connector-curvature="0" /></g><g
           id="g46"
           transform="translate(1045.001,677.4845)"><path
             d="m 0,0 c -9.999,-0.147 -20.351,-0.372 -29.395,-4.638 -9.043,-4.265 -16.436,-13.759 -14.961,-23.65 0.288,-1.933 0.958,-3.908 2.407,-5.22 1.695,-1.535 4.122,-1.895 6.398,-2.115 8.535,-0.827 17.165,-0.666 25.664,0.478 8.61,1.159 17.664,3.274 25.739,0.069 8.074,-3.206 13.282,-14.75 6.996,-20.745 -1.267,-1.208 -2.845,-2.045 -4.146,-3.217 -6.076,-5.469 -3.102,-16.815 4.293,-20.3 7.396,-3.486 16.65,-0.261 22.158,5.781 5.508,6.041 7.931,14.271 9.261,22.338 0.585,3.542 1.252,7.552 4.231,9.557 1.881,1.267 4.278,1.412 6.545,1.485 6.402,0.206 13.015,0.115 18.901,-2.409 5.885,-2.526 10.909,-8.053 10.991,-14.456 0.058,-4.536 -2.295,-9.029 -1.319,-13.458 1.695,-7.696 13.391,-9.55 18.962,-3.975 5.569,5.575 5.304,15.067 1.533,21.987 -3.771,6.919 -10.263,11.866 -16.566,16.597 8.742,8.789 23.322,7.98 33.877,14.479 13.729,8.454 17.207,28.389 10.273,42.944 -6.935,14.555 -21.891,23.956 -37.439,28.223 -7.432,2.04 -18.649,0.192 -18.185,-7.502 0.166,-2.747 2.001,-5.068 3.754,-7.189 l 14.745,-17.84 c -13.832,2.105 -27.526,5.117 -40.964,9.01 -8.218,2.38 -17.4,6.092 -20.118,14.204 C 42.24,44.596 42.88,49.18 41.845,53.442 40.118,60.544 33.314,66.084 26.011,66.334 18.706,66.584 11.539,61.523 9.332,54.556 5.816,43.459 14.47,31.997 24.386,25.901 45.191,13.112 75.707,16.387 94.103,1.827 83.132,-5.183 65.577,-0.265 52.971,0.073 35.318,0.545 17.652,0.259 0,0"
             style="fill:#463a28;fill-opacity:1;fill-rule:evenodd;stroke:none"
             id="path48"
             inkscape:connector-curvature="0" /></g><g
           id="g50"
           transform="translate(231.041,597.2682)"><path
             d="m 0,0 c 6.369,-1.513 13.415,-0.518 20.168,-0.05 23.884,1.652 48.748,-3.996 65.666,-14.916 7.372,-4.758 13.551,-11.232 11.642,-17.822 -3.039,-10.494 -23.502,-14.387 -40.166,-14.128 -16.665,0.26 -35.149,2.197 -48.506,-4.188 -14.439,-6.904 -15.622,-21.503 -5.934,-31.232 9.688,-9.728 27.385,-15.108 45.056,-17.366 15.135,-1.934 32.168,-1.66 44.314,4.436 10.011,5.025 14.9,13.036 22.031,19.781 7.129,6.744 19.373,12.827 31.59,10.558 6.895,-1.281 12.076,-5.001 15.536,-9.029 23.48,-27.341 -18.256,-66.597 12.548,-90.774 6.331,-4.969 16.609,-8.673 26.227,-6.884 9.327,1.734 14.79,7.872 18.033,13.734 17.317,31.292 -1.586,65.344 -10.927,98 -3.348,11.706 -2.682,26.918 14.384,31.633 11.26,3.111 24.017,-0.224 36.206,-1.085 12.191,-0.859 28.07,3.606 26.393,11.385 -2.096,9.714 -24.35,8.365 -38.915,11.395 -22.424,4.664 -26.486,28.084 -6.206,35.784 -4.327,10.052 -20.621,17.4 -36.859,16.622 C 186.044,45.076 171.639,36.256 169.698,25.905 147.597,31.324 128.404,41.48 115.929,54.356 109.058,61.448 104.109,69.38 95.513,75.653 86.917,81.926 73.021,86.318 60.821,83.378 4.756,69.868 90.656,34.85 104.732,28.701 81.011,20.508 54.122,31.859 28.529,30.416 11.075,29.432 -37.556,8.92 0,0"
             style="fill:#463a28;fill-opacity:1;fill-rule:evenodd;stroke:none"
             id="path52"
             inkscape:connector-curvature="0" /></g><g
           id="g54"
           transform="translate(1174.8652,841.4415)"><path
             d="m 0,0 c 6.369,-1.513 13.415,-0.518 20.169,-0.05 23.883,1.652 48.747,-3.996 65.665,-14.916 7.371,-4.758 13.551,-11.232 11.643,-17.822 -3.04,-10.494 -23.502,-14.387 -40.167,-14.128 -16.664,0.26 -35.149,2.197 -48.506,-4.188 -14.439,-6.904 -15.621,-21.503 -5.934,-31.232 9.688,-9.728 27.385,-15.108 45.057,-17.366 15.134,-1.934 32.168,-1.66 44.313,4.436 10.011,5.026 14.901,13.036 22.031,19.781 7.129,6.745 19.374,12.827 31.59,10.558 6.895,-1.281 12.076,-5.001 15.536,-9.029 23.481,-27.341 -18.255,-66.597 12.548,-90.774 6.331,-4.969 16.609,-8.672 26.227,-6.884 9.327,1.734 14.79,7.872 18.033,13.734 17.317,31.292 -1.586,65.344 -10.927,98 -3.348,11.706 -2.682,26.918 14.384,31.633 11.26,3.111 24.017,-0.224 36.206,-1.084 12.191,-0.86 28.07,3.605 26.393,11.384 -2.096,9.714 -24.35,8.365 -38.915,11.395 -22.424,4.664 -26.486,28.084 -6.206,35.784 -4.327,10.052 -20.621,17.4 -36.859,16.622 -16.237,-0.778 -30.641,-9.598 -32.583,-19.949 -22.1,5.419 -41.295,15.575 -53.769,28.452 -6.87,7.091 -11.821,15.023 -20.416,21.296 C 86.918,81.926 73.021,86.318 60.821,83.378 4.756,69.868 90.656,34.85 104.731,28.701 81.011,20.508 54.122,31.859 28.528,30.416 11.074,29.432 -37.556,8.92 0,0"
             style="fill:#463a28;fill-opacity:1;fill-rule:evenodd;stroke:none"
             id="path56"
             inkscape:connector-curvature="0" /></g><g
           id="g58"
           transform="translate(823.5566,156.8742)"><path
             d="m 0,0 c 1.098,-8.805 4.125,-18.94 -1.657,-25.67 -2.79,-3.246 -7.063,-4.788 -11.232,-5.76 -14.277,-3.33 -29.168,-1.489 -43.809,-0.74 -14.642,0.75 -30.096,0.185 -42.725,-7.261 -12.63,-7.445 -21.089,-23.771 -15.247,-37.218 1.913,-4.404 5.266,-8.651 4.596,-13.406 -0.665,-4.718 -5.031,-7.895 -9.047,-10.46 -20.13,-12.853 -40.99,-24.562 -62.447,-35.051 -2.422,-1.185 -4.932,-2.415 -6.639,-4.503 -4.136,-5.058 -1.598,-13.215 3.591,-17.185 5.188,-3.971 12.052,-4.823 18.563,-5.351 8.529,-0.693 17.079,-1.068 25.627,-1.443 55.684,-2.443 111.366,-4.886 167.05,-7.329 9.507,-0.417 19.99,-0.523 27.3,5.569 7.84,6.537 9.255,17.861 9.838,28.063 2.594,45.431 1.013,92.999 -8.531,137.632 C 52.01,14.951 45.469,31.483 27.436,32.007 9.35,32.531 -2.085,16.723 0,0"
             style="fill:#463a28;fill-opacity:1;fill-rule:evenodd;stroke:none"
             id="path60"
             inkscape:connector-curvature="0" /></g><g
           id="g62"
           transform="translate(1126.4258,556.0035)"><path
             d="m 0,0 c 1.098,-8.804 4.125,-18.94 -1.658,-25.669 -2.789,-3.247 -7.063,-4.789 -11.231,-5.761 -14.277,-3.33 -29.168,-1.489 -43.809,-0.739 -14.642,0.749 -30.096,0.184 -42.726,-7.262 -12.629,-7.445 -21.088,-23.771 -15.246,-37.218 1.913,-4.404 5.266,-8.651 4.596,-13.405 -0.665,-4.719 -5.031,-7.897 -9.048,-10.461 -20.13,-12.853 -40.989,-24.562 -62.446,-35.051 -2.422,-1.184 -4.933,-2.416 -6.639,-4.503 -4.136,-5.058 -1.599,-13.215 3.591,-17.184 5.188,-3.971 12.052,-4.824 18.563,-5.352 8.529,-0.692 17.079,-1.067 25.627,-1.442 55.683,-2.444 111.366,-4.887 167.05,-7.329 9.507,-0.418 19.99,-0.525 27.3,5.569 7.84,6.536 9.255,17.86 9.838,28.062 2.593,45.431 1.013,92.999 -8.531,137.631 C 52.01,14.952 45.468,31.483 27.435,32.007 9.35,32.531 -2.085,16.723 0,0"
             style="fill:#463a28;fill-opacity:1;fill-rule:evenodd;stroke:none"
             id="path64"
             inkscape:connector-curvature="0" /></g><g
           id="g66"
           transform="translate(116.8398,835.0143)"><path
             d="m 0,0 c 4.111,-2.617 7.412,-6.313 11.269,-9.292 14.443,-11.153 34.339,-10.914 52.582,-10.479 38.354,0.916 76.741,0.467 115.064,-1.343 6.805,-0.322 14.145,-0.889 19.335,-5.302 5.192,-4.411 6.15,-14.131 0.141,-17.343 -2.991,-1.598 -6.713,-1.145 -9.808,-2.532 -6.83,-3.062 -6.824,-13.483 -2.14,-19.322 4.683,-5.839 12.095,-8.577 18.669,-12.155 6.575,-3.578 13.141,-9.23 13.437,-16.71 -10.251,-4.578 -22.533,-4.345 -32.603,0.62 -6.357,3.134 -11.699,7.947 -17.436,12.111 -28.502,20.69 -68.392,24.464 -100.269,9.488 1.344,-5.107 6.958,-7.532 11.517,-10.198 4.559,-2.665 9.022,-8.093 6.456,-12.71 -1.244,-2.238 -3.793,-3.406 -6.263,-4.084 -23.158,-6.356 -42.544,16.911 -63.724,28.229 -22.992,12.285 -50.883,10.456 -76.436,5.299 -3.406,-0.688 -7.029,-1.553 -9.389,-4.104 -2.176,-2.354 -2.856,-5.708 -3.153,-8.901 -1.728,-18.554 5.625,-40.033 -6.438,-54.235 -6.47,-7.617 -17.853,-11.837 -20.029,-21.591 -2.571,-11.523 9.919,-22.406 7.472,-33.957 -2.493,-11.764 -19.662,-14.729 -29.405,-7.68 -9.744,7.048 -13.515,19.615 -16.058,31.368 -6.407,29.604 -8.9,60.037 -7.509,90.291 1.086,23.602 0.983,60.068 15.851,79.954 10.895,14.573 27.455,15.075 44.245,13.333 C -60.375,16.241 -20.637,13.141 0,0"
             style="fill:#463a28;fill-opacity:1;fill-rule:evenodd;stroke:none"
             id="path68"
             inkscape:connector-curvature="0" /></g><g
           id="g70"
           transform="translate(689.2129,534.0851)"><path
             d="m 0,0 c -3.315,-4.79 -1.134,-11.871 3.433,-15.488 4.565,-3.617 10.743,-4.454 16.566,-4.315 5.824,0.139 11.65,1.115 17.449,0.565 3.894,-0.369 7.906,-1.537 10.644,-4.33 2.736,-2.794 3.746,-7.523 1.461,-10.697 -2.466,-3.425 -7.347,-3.762 -11.568,-3.777 -5.474,-0.02 -10.95,-0.04 -16.424,-0.06 -5.284,-0.019 -11.699,-0.724 -13.899,-5.528 -2.837,-6.195 4.146,-12.421 10.573,-14.684 8.035,-2.831 17.578,-3.466 24.547,1.432 4.828,3.393 8.265,9.267 14.061,10.381 6.62,1.272 12.473,-4.388 16.19,-10.013 3.716,-5.625 7.211,-12.203 13.56,-14.474 6.528,-2.337 14.385,1.349 17.421,7.584 3.035,6.235 1.443,14.193 -3.209,19.336 -1.817,2.007 -4.07,3.674 -5.406,6.029 -1.378,2.429 -1.628,5.329 -1.62,8.122 0.035,12.834 5.054,25.59 13.773,35.009 1.343,1.45 2.853,3.001 3.009,4.971 0.26,3.317 -3.277,5.509 -6.312,6.872 -6.77,3.038 -14.196,6.041 -21.408,4.295 C 75.629,19.485 69.878,10.628 73.982,4.448 71.396,8.342 53.271,11.328 48.698,12.406 60.815,-9.451 12.675,-0.227 0,0"
             style="fill:#463a28;fill-opacity:1;fill-rule:evenodd;stroke:none"
             id="path72"
             inkscape:connector-curvature="0" /></g><g
           id="g74"
           transform="translate(236.9873,837.3824)"><path
             d="m 0,0 c 23.166,-6.123 49.183,3.185 71.069,-6.571 11.869,-5.291 20.898,-15.601 32.642,-21.165 11.744,-5.564 29.297,-3.566 33.192,8.832 0.745,2.37 0.922,4.96 2.195,7.094 3.161,5.299 11.121,4.961 16.665,2.253 5.545,-2.708 10.448,-7.111 16.547,-8.047 6.098,-0.937 13.592,4.46 11.372,10.218 -1.459,3.783 -6.018,5.164 -10.005,5.907 -16.771,3.128 -34.033,3.609 -50.953,1.42 C 109.954,-1.711 96.798,-4.848 84.426,-1.275 78.436,0.455 73,3.678 67.242,6.068 56.244,10.633 43.98,12.104 32.215,10.271 27.032,9.464 21.885,8.027 16.644,8.242 10.795,8.481 5.249,10.76 -0.156,13.006 -10.728,17.398 -21.54,22.983 -32.551,25.762 -27.978,12.99 -12.859,3.419 0,0"
             style="fill:#463a28;fill-opacity:1;fill-rule:evenodd;stroke:none"
             id="path76"
             inkscape:connector-curvature="0" /></g><g
           id="g78"
           transform="translate(243.4805,454.3332)"><path
             d="m 0,0 c -2.507,0.232 -5.193,0.395 -7.383,-0.848 -6.479,-3.676 -1.881,-14.052 4.545,-17.818 18.067,-10.588 41.931,-2.441 61.405,-10.141 12.521,-4.951 22.116,-16.681 24.485,-29.936 0.375,-2.099 0.531,-4.441 -0.69,-6.189 -1.862,-2.667 -5.767,-2.576 -8.998,-2.203 -18.356,2.122 -36.711,4.244 -55.067,6.366 -7.417,0.858 -16.991,0.505 -19.691,-6.456 -1.736,-4.476 0.538,-9.469 3.201,-13.465 11.933,-17.906 32.381,-28.876 53.473,-33.134 21.093,-4.259 42.941,-2.449 64.208,0.827 8.744,1.348 19.253,2.326 24.899,-4.486 3.169,-3.824 3.78,-9.089 4.263,-14.033 2.129,-21.81 4.259,-43.622 6.388,-65.433 3.534,-3.433 9.92,-1.524 12.752,2.508 2.832,4.032 3.098,9.269 3.232,14.194 0.815,29.881 0.126,61.149 -13.917,87.537 -8.574,16.111 -21.753,29.583 -29.084,46.298 -7.33,16.715 -6.657,39.475 8.487,49.662 7.955,5.353 18.896,6.566 24.673,14.22 6.558,8.691 2.744,21.953 -5.337,29.25 -8.08,7.298 -19.125,10.13 -29.7,12.72 -4.784,1.172 -10.838,1.916 -13.711,-2.084 -1.425,-1.981 -1.561,-4.582 -1.624,-7.022 C 110.247,28.561 111.348,6.745 114.1,-14.861 114.584,-18.66 53.979,0.698 49.219,2.786 48.704,0.133 45.291,-3.682 45.283,-7.431 30.204,-5.675 15.311,-1.42 0,0"
             style="fill:#463a28;fill-opacity:1;fill-rule:evenodd;stroke:none"
             id="path80"
             inkscape:connector-curvature="0" /></g><g
           id="g82"
           transform="translate(333.438,285.8185)"><path
             d="m 0,0 c -12.832,0.188 -30.982,-7.77 -26.866,-22.663 1.954,-7.071 8.407,-10.381 14.156,-12.855 15.093,-6.495 30.187,-12.99 45.28,-19.485 6.198,-2.667 12.981,-5.944 15.911,-13.148 4.009,-9.859 -1.799,-22.294 -9.889,-27.095 -8.089,-4.802 -17.54,-4.068 -26.502,-3.23 -47.316,4.431 -94.632,8.862 -141.948,13.292 -17.784,1.665 -40.58,-0.418 -46.451,-21.054 10.017,-10.134 20.033,-20.268 30.05,-30.401 4.02,-4.067 8.482,-9.838 6.821,-15.893 -0.945,-3.443 -3.633,-5.644 -6.193,-7.475 -22.164,-15.856 -48.089,-23.711 -73.73,-22.336 -11.652,0.624 -25.672,1.871 -32.47,-9.741 -6.846,-11.695 -1.024,-28.318 6.963,-38.871 7.988,-10.553 18.374,-19.379 22.256,-32.962 -11.701,4.053 -25.33,-6.08 -27.8,-20.67 19.73,-15.056 44.211,-16.297 67.449,-16.934 102.631,-2.815 205.322,-2.392 307.936,1.269 -8.722,28.405 -34.382,43.599 -58.838,48.398 -24.457,4.797 -49.692,2.065 -73.918,8.379 -5.294,1.38 -11.3,4.066 -12.92,10.393 -2.393,9.341 6.489,16.897 14.101,19.868 30.541,11.921 66.244,9.091 91.122,33.857 -12.924,16.031 -31.658,24.753 -50.009,23.283 22.814,9.785 45.628,19.571 68.442,29.356 5.353,2.297 11.255,5.187 13.588,11.521 6.542,17.772 -20.854,29.48 -21.066,48.975 44.669,7.516 90.006,9.06 134.946,4.597 16.4,-1.629 39.359,2.581 39.535,22.741 -24.214,1.023 -48.429,2.044 -72.643,3.067 -0.138,12.898 12.738,19.173 23.18,20.813 10.442,1.639 23.281,4.293 26.573,16.545 C 206.359,20.687 161.582,26.664 118.465,18.704 125.273,7.881 135.522,0.981 146.342,-1.812 97.818,-4.034 48.606,-0.715 0,0"
             style="fill:#463a28;fill-opacity:1;fill-rule:evenodd;stroke:none"
             id="path84"
             inkscape:connector-curvature="0" /></g><g
           id="g86"
           transform="translate(1092.7949,297.5578)"><path
             d="m 0,0 c 12.832,0.188 30.982,-7.77 26.866,-22.663 -1.954,-7.071 -8.407,-10.381 -14.156,-12.855 -15.093,-6.495 -30.187,-12.99 -45.28,-19.485 -6.198,-2.667 -12.982,-5.944 -15.91,-13.149 -4.009,-9.858 1.798,-22.293 9.887,-27.095 8.09,-4.801 17.54,-4.067 26.503,-3.229 47.316,4.431 94.632,8.862 141.948,13.292 17.785,1.665 40.58,-0.418 46.451,-21.055 -10.017,-10.133 -20.034,-20.267 -30.05,-30.4 -4.021,-4.067 -8.482,-9.838 -6.821,-15.893 0.945,-3.443 3.633,-5.644 6.193,-7.475 22.164,-15.856 48.089,-23.711 73.73,-22.337 11.652,0.625 25.671,1.872 32.47,-9.74 6.846,-11.695 1.023,-28.318 -6.964,-38.871 -7.987,-10.553 -18.373,-19.379 -22.256,-32.962 11.701,4.053 25.331,-6.081 27.801,-20.67 -19.73,-15.056 -44.212,-16.297 -67.449,-16.934 -102.632,-2.815 -205.322,-2.392 -307.937,1.268 8.723,28.406 34.382,43.6 58.839,48.399 24.457,4.797 49.692,2.065 73.918,8.379 5.294,1.38 11.299,4.066 12.92,10.393 2.393,9.34 -6.488,16.896 -14.1,19.868 -30.542,11.921 -66.246,9.09 -91.124,33.857 12.924,16.031 31.659,24.753 50.01,23.283 -22.814,9.785 -45.628,19.571 -68.442,29.356 -5.353,2.297 -11.255,5.186 -13.587,11.521 -6.543,17.771 20.852,29.48 21.064,48.975 -44.669,7.515 -90.004,9.06 -134.945,4.596 -16.4,-1.628 -39.359,2.581 -39.535,22.742 24.215,1.022 48.429,2.044 72.644,3.067 0.137,12.897 -12.74,19.173 -23.181,20.813 -10.442,1.639 -23.281,4.293 -26.573,16.545 40.707,19.146 85.485,25.123 128.6,17.163 C -125.273,7.881 -135.522,0.981 -146.343,-1.812 -97.818,-4.034 -48.606,-0.715 0,0"
             style="fill:#463a28;fill-opacity:1;fill-rule:evenodd;stroke:none"
             id="path88"
             inkscape:connector-curvature="0" /></g><g
           id="g90"
           transform="translate(52.4468,35.8722)"><path
             d="m 0,0 c 0.491,-9.124 8.554,-16.368 9.612,-25.444 0.3,-2.572 -0.048,-5.352 -1.653,-7.383 -3.506,-4.437 -10.341,-3.085 -15.992,-2.864 -10.339,0.404 -20.095,-4.446 -30.274,-6.303 -13.463,-2.455 -27.845,0.577 -39.17,8.26 -1.975,1.338 -3.93,2.9 -4.921,5.071 -0.892,1.952 -0.902,4.176 -0.897,6.322 0.045,18.38 -4.64,43.184 12.659,55.293 10.93,7.652 32.997,12.342 46.532,13.161 C -11.818,46.856 17.6,44.677 23.625,31.82 33.553,10.637 -1.169,21.764 0,0"
             style="fill:#463a28;fill-opacity:1;fill-rule:evenodd;stroke:none"
             id="path92"
             inkscape:connector-curvature="0" /></g><g
           id="g94"
           transform="translate(749.9805,344.9865)"><path
             d="m 0,0 c -2.006,-0.15 -4.086,-0.337 -5.83,-1.339 -4.924,-2.828 -4.328,-10.595 -0.592,-14.871 3.736,-4.276 9.362,-6.26 14.305,-9.055 4.942,-2.796 9.758,-7.382 9.554,-13.056 -0.237,-6.617 -7.136,-11.008 -13.605,-12.415 -6.469,-1.408 -13.429,-1.122 -19.348,-4.088 -5.92,-2.965 -9.988,-11.247 -5.649,-16.246 1.491,-1.718 3.663,-2.679 5.823,-3.391 14.879,-4.902 32.303,-0.499 45.911,-8.26 2.764,-1.576 5.438,-3.902 5.967,-7.04 1.185,-7.03 -8.058,-10.627 -15.131,-11.526 -25.602,-3.258 -51.205,-6.515 -76.807,-9.772 -5.022,-0.639 -10.341,-1.402 -14.236,-4.635 -8.634,-7.168 -4.444,-22.427 5.034,-28.439 9.476,-6.013 21.528,-5.517 32.729,-4.817 l 23.628,1.476 c 6.484,0.406 13.622,0.62 18.73,-3.394 5.109,-4.014 5.347,-13.934 -0.878,-15.793 15.663,-5.215 34.625,6.295 37.228,22.597 0.865,5.42 0.167,11.065 1.628,16.356 3.44,12.457 18.219,21.27 16.723,34.106 -1.853,15.89 -27.844,24.226 -23.271,39.555 2.724,9.132 14.421,11.351 23.933,11.935 11.015,0.677 22.031,1.354 33.047,2.032 3.544,0.218 7.223,0.474 10.326,2.2 23.402,13.026 -9.118,34.166 -21.844,36.337 C 59.346,3.239 28.237,2.116 0,0"
             style="fill:#463a28;fill-opacity:1;fill-rule:evenodd;stroke:none"
             id="path96"
             inkscape:connector-curvature="0" /></g><g
           id="g98"
           transform="translate(1.2192,567.9933)"><path
             d="m 0,0 c -7.501,0.58 -17.016,-0.454 -19.486,-7.561 -2.082,-5.985 2.885,-12.477 8.801,-14.75 5.916,-2.272 12.48,-1.642 18.816,-1.758 7.903,-0.143 15.782,-1.511 23.271,-4.039 6.166,-2.08 13.178,-7.082 11.546,-13.382 -1.689,-6.521 -11.725,-8.781 -12.09,-15.509 -0.159,-2.937 1.747,-5.588 3.878,-7.617 5.639,-5.37 14.249,-8.223 21.451,-5.261 7.202,2.962 11.263,12.83 6.754,19.179 9.732,1.348 19.874,-0.45 28.549,-5.061 2.073,-1.102 4.194,-2.513 5.018,-4.711 1.677,-4.474 -2.719,-8.65 -4.879,-12.911 -5.083,-10.027 5.463,-23.494 16.569,-21.757 11.107,1.736 17.375,16.464 11.675,26.152 -2.367,4.023 -6.179,7.032 -8.609,11.018 -2.43,3.986 -2.973,9.913 0.741,12.74 1.921,1.462 4.474,1.707 6.881,1.898 l 29.666,2.352 c 4.137,0.329 9.695,2.445 8.74,6.483 -0.354,1.499 -1.605,2.6 -2.834,3.529 -14.275,10.791 -35.198,11.85 -50.49,2.556 -1.413,-0.859 -2.914,-1.833 -4.564,-1.717 -2.703,0.191 -4.27,3.077 -5.249,5.604 C 89.848,-13.414 86.987,-1.649 81.02,8.664 75.052,18.977 65.006,27.961 53.104,28.532 50.223,28.67 46.816,27.966 45.621,25.341 44.293,22.428 46.513,19.178 48.771,16.909 53.9,11.756 59.974,7.502 64.384,1.717 79.999,-18.77 56.554,-10.958 45.773,-8.026 30.789,-3.95 15.49,-1.196 0,0"
             style="fill:#463a28;fill-opacity:1;fill-rule:evenodd;stroke:none"
             id="path100"
             inkscape:connector-curvature="0" /></g><g
           id="g102"
           transform="translate(699.8291,657.5094)"><path
             d="m 0,0 c -11.134,-2.812 -24.772,-9.937 -22.793,-21.249 0.641,-3.659 2.959,-6.807 5.561,-9.459 16.447,-16.771 42.727,-17.024 65.554,-22.568 32.667,-7.934 61.875,-29.241 79.405,-57.926 3.484,-5.703 6.611,-11.787 11.533,-16.308 4.922,-4.521 12.261,-7.192 18.4,-4.548 8.652,3.726 10.348,15.073 10.51,24.492 0.473,27.453 5.559,110.715 -24.968,118.677 C 100.426,22.268 41.831,10.563 0,0"
             style="fill:#463a28;fill-opacity:1;fill-rule:evenodd;stroke:none"
             id="path104"
             inkscape:connector-curvature="0" /></g><g
           id="g106"
           transform="translate(415.1763,242.6837)"><path
             d="m 0,0 c 3.402,-5.887 -0.461,-13.821 -6.356,-17.21 -5.895,-3.389 -13.055,-3.462 -19.854,-3.443 -44.536,0.118 -89.071,0.236 -133.606,0.354 -7.917,0.021 -16.793,-0.348 -22.233,-6.099 14.309,-11.632 28.618,-23.264 42.927,-34.896 2.475,-2.011 5.186,-4.534 4.982,-7.716 -0.327,-5.078 -7.095,-6.452 -12.182,-6.384 -22.196,0.301 -44.39,0.601 -66.585,0.902 -11.448,0.154 -23.189,0.364 -33.844,4.554 -10.655,4.191 -20.159,13.284 -21.446,24.661 -0.412,3.635 0.125,7.587 2.492,10.376 14.656,17.268 47.006,-11.346 50.757,18.762 1.15,9.231 -6.193,9.069 3.871,17.437 6.704,5.574 19.834,6.127 28.043,6.853 C -123.4,13.426 -59.41,5.709 0,0"
             style="fill:#463a28;fill-opacity:1;fill-rule:evenodd;stroke:none"
             id="path108"
             inkscape:connector-curvature="0" /></g><g
           id="g110"
           transform="translate(217.1572,701.9674)"><path
             d="m 0,0 c 18.725,-12.635 41.218,-19.608 63.807,-19.782 8.273,-0.063 16.714,0.743 24.694,-1.44 7.981,-2.183 15.627,-8.329 16.426,-16.564 -11.51,-9.433 -28.24,-6.551 -43.12,-6.323 -14.88,0.228 -33.431,-6.695 -33.836,-21.572 -0.226,-8.308 5.98,-15.76 13.493,-19.315 7.514,-3.555 16.11,-3.925 24.419,-3.739 5.506,0.123 11.265,0.539 15.959,3.42 4.693,2.879 7.859,8.982 5.679,14.04 9.821,5.093 21.503,4.299 32.438,5.982 10.934,1.683 22.988,7.81 24.626,18.751 1.227,8.198 -3.916,16.085 -4.05,24.373 -0.175,10.828 8.541,20.258 18.664,24.106 10.122,3.847 21.353,3.208 32.101,1.888 29.897,-3.669 59.191,-12.209 86.378,-25.18 3.384,-1.615 7.251,-3.331 10.741,-1.957 7.413,2.918 4.151,14.162 -0.748,20.443 C 255.348,38.578 201.915,62.617 149.46,59.31 156.367,48.743 164.393,38.242 170.013,27.028 158.892,19.051 141.799,22.155 128.763,18.543 118.526,15.708 109.656,9.553 99.269,7.293 83.831,3.935 66.163,6.198 50.402,5.268 42.302,4.789 5.844,-3.943 0,0"
             style="fill:#463a28;fill-opacity:1;fill-rule:evenodd;stroke:none"
             id="path112"
             inkscape:connector-curvature="0" /></g><g
           id="g114"
           transform="translate(544.0674,546.1193)"><path
             d="m 0,0 c -6.604,-12.322 -4.39,-27.962 -11.12,-40.215 -6.595,-12.006 -20.556,-18.243 -34.13,-20.073 -13.575,-1.829 -27.356,-0.085 -41.051,-0.391 -9.229,-0.206 -19.029,-1.592 -26.073,-7.56 -7.044,-5.968 -9.691,-17.842 -3.267,-24.472 2.994,-3.089 7.297,-4.511 11.506,-5.399 37.838,-7.985 74.299,18.5 112.854,21.498 35.469,2.759 71.731,-16.539 89.256,-47.499 4.097,-7.239 7.29,-15.101 12.699,-21.419 5.409,-6.319 13.869,-10.948 21.936,-8.923 1.474,43.552 -15.517,87.43 -45.938,118.632 -2.687,2.756 -5.693,5.535 -9.467,6.289 -2.92,0.583 -5.926,-0.13 -8.818,-0.839 -14.293,-3.504 -28.586,-7.008 -42.879,-10.512 -5.103,12.055 5.354,25.967 17.804,30.016 12.449,4.049 25.926,1.393 38.932,-0.095 13.007,-1.488 27.432,-1.356 37.559,6.938 16.283,13.336 11.624,41.243 -3.778,55.587 C 100.625,65.908 78.711,70.295 58.01,74.093 46.735,76.161 71.556,42.754 74.255,40.843 86.329,32.294 97.06,24.999 75.582,20.482 50.247,15.153 16.005,29.86 0,0"
             style="fill:#463a28;fill-opacity:1;fill-rule:evenodd;stroke:none"
             id="path116"
             inkscape:connector-curvature="0" /></g><g
           id="g118"
           transform="translate(213.3096,560.4865)"><path
             d="m 0,0 c -5.161,-2.714 -9.52,-7.515 -10.369,-13.283 -0.339,-2.296 -0.035,-4.849 1.547,-6.547 0.865,-0.927 2.028,-1.513 3.182,-2.04 11.642,-5.306 24.687,-6.342 37.3,-8.49 12.612,-2.148 25.693,-5.852 34.599,-15.038 -1.853,-4.021 -3.705,-8.042 -5.558,-12.063 -0.652,-1.416 -1.315,-3.025 -0.763,-4.483 0.611,-1.611 2.446,-2.354 4.119,-2.764 12.84,-3.152 27.43,3.935 32.892,15.975 5.462,12.041 1.182,27.687 -9.647,35.271 -3.309,2.318 -7.62,4.796 -7.454,8.833 0.127,3.09 2.935,5.288 4.5,7.956 3.377,5.754 0.317,13.699 -5.279,17.349 C 60.312,32.898 56.511,15.28 44.7,8.104 31.649,0.175 13.957,7.342 0,0"
             style="fill:#463a28;fill-opacity:1;fill-rule:evenodd;stroke:none"
             id="path120"
             inkscape:connector-curvature="0" /></g><g
           id="g122"
           transform="translate(524.6348,697.0055)"><path
             d="m 0,0 c -32.703,-2.741 -65.769,-1.134 -98.053,4.764 -7.536,1.377 -15.555,2.944 -22.652,0.058 -7.096,-2.886 -12.021,-12.316 -7.446,-18.461 3.435,-4.614 10.048,-5.085 15.8,-5.142 23.583,-0.233 47.167,-0.467 70.751,-0.7 8.402,-0.083 17.377,-0.341 24.262,-5.157 6.884,-4.817 9.872,-16.014 3.609,-21.613 -3.62,-3.234 -8.9,-3.572 -13.75,-3.745 -21.778,-0.774 -43.555,-1.549 -65.333,-2.323 4.937,-14.602 21.848,-21.638 37.234,-22.57 15.385,-0.932 30.91,2.394 46.178,0.276 5.542,-0.769 11.255,-2.407 15.205,-6.37 3.949,-3.964 5.448,-10.787 2.06,-15.241 -2.151,-2.828 -5.794,-4.242 -7.881,-7.119 -3.971,-5.473 -0.167,-13.769 5.836,-16.885 6.002,-3.116 13.169,-2.557 19.903,-1.919 8.67,0.82 18.742,2.53 22.823,10.224 4.088,7.706 -0.158,17.191 1.083,25.826 1.592,11.074 12.101,18.951 22.884,21.934 10.783,2.983 22.193,2.329 33.318,3.511 3.545,0.377 7.503,1.21 9.423,4.212 2.239,3.502 0.562,8.21 -1.907,11.553 -11.472,15.532 -34.469,15.238 -51.776,23.801 -3.314,1.64 -6.736,4.02 -7.507,7.636 -0.749,3.514 1.261,6.996 3.44,9.853 20.653,27.077 59.139,31.751 87.911,49.97 6.746,4.272 13.667,12.662 9.225,19.298 -1.757,2.625 -4.839,3.976 -7.753,5.193 -16.408,6.852 -36.183,13.453 -50.948,3.547 C 81.688,64.849 77.224,46.152 60.729,38.715 45.589,31.89 37.911,37.919 24.752,44.11 -14.083,62.382 10.94,16.168 0,0"
             style="fill:#758949;fill-opacity:1;fill-rule:evenodd;stroke:none"
             id="path124"
             inkscape:connector-curvature="0" /></g><g
           id="g126"
           transform="translate(497.9414,348.963)"><path
             d="m 0,0 c -5.962,-3.929 -9.128,-12.808 -4.78,-18.471 4.032,-5.254 11.793,-5.244 18.406,-4.897 26.412,1.383 52.951,0.333 79.172,-3.135 4.751,-0.628 9.723,-1.43 13.519,-4.354 3.798,-2.924 5.855,-8.68 3.176,-12.653 -3.172,-4.704 -10.296,-4.145 -15.119,-7.132 -7.507,-4.647 -6.33,-17.258 0.85,-22.398 7.178,-5.14 17.438,-3.826 24.989,0.75 2.077,1.259 4.14,2.9 4.827,5.229 1.56,5.281 -4.601,10.012 -4.514,15.516 0.138,8.626 13.348,9.777 18.252,16.874 3.855,5.578 1.126,13.911 -4.466,17.747 -5.591,3.837 -13.01,3.96 -19.603,2.375 -5.581,-1.342 -11.346,-3.801 -16.843,-2.15 -10.385,3.119 -11.039,19.121 -3.423,26.84 7.617,7.718 19.314,9.29 30.096,10.438 l 61.45,6.548 c 1.845,0.197 3.847,0.466 5.151,1.787 1.747,1.771 1.503,4.735 0.449,6.989 -4.195,8.975 -16.414,9.817 -26.311,9.345 C 145.569,44.309 125.859,43.369 106.15,42.43 99.284,42.103 92.047,41.66 86.303,37.884 80.559,34.108 77.219,25.764 81.17,20.138 60.663,28.772 40.156,37.406 19.649,46.04 15.191,38.788 23.412,30.296 31.088,26.614 40.393,22.15 56.093,12.035 43.144,3.123 32.386,-4.28 12.775,8.42 0,0"
             style="fill:#758949;fill-opacity:1;fill-rule:evenodd;stroke:none"
             id="path128"
             inkscape:connector-curvature="0" /></g><g
           id="g130"
           transform="translate(50.9912,63.755)"><path
             d="m 0,0 c 9.876,17.084 8.777,39.899 -2.696,55.954 -3.042,4.257 -6.924,8.592 -6.744,13.821 0.345,10.05 16.065,12.587 23.151,5.453 7.087,-7.135 7.594,-18.298 7.664,-28.354 L 21.65,7.338 c 0.033,-4.795 0.293,-10.146 3.748,-13.47 3.197,-3.075 8.085,-3.378 12.52,-3.355 19.567,0.094 41.12,2.481 56.807,-9.215 2.163,-1.612 4.309,-3.806 4.281,-6.504 -0.047,-4.682 -5.993,-6.568 -10.654,-7.009 -15.509,-1.465 -31.135,-1.698 -46.681,-0.697 -14.603,0.94 -30.013,2.83 -43.249,-3.41 -12.704,-5.99 -20.968,-18.352 -28.743,-30.049 -1.621,-2.44 -3.361,-4.977 -5.972,-6.302 -2.721,-1.381 -5.942,-1.219 -8.975,-0.892 -9.065,0.975 -18.002,3.134 -26.512,6.405 -2.581,0.991 -5.302,2.24 -6.658,4.649 -1.457,2.586 -0.945,5.795 -0.292,8.692 3.275,14.534 12.41,48.673 30.721,51.309 C -28.651,0.276 -16.708,-28.9 0,0"
             style="fill:#758949;fill-opacity:1;fill-rule:evenodd;stroke:none"
             id="path132"
             inkscape:connector-curvature="0" /></g><g
           id="g134"
           transform="translate(990.6133,82.7062)"><path
             d="m 0,0 c -12.471,-15.293 -15.018,-37.993 -6.247,-55.67 2.325,-4.686 5.467,-9.585 4.457,-14.719 -1.94,-9.867 -17.863,-9.868 -23.724,-1.696 -5.86,8.172 -4.584,19.273 -3.051,29.212 2.007,13.025 4.015,26.051 6.023,39.075 0.73,4.739 1.326,10.064 -1.557,13.896 -2.666,3.545 -7.443,4.621 -11.826,5.306 -19.332,3.022 -40.989,4.097 -54.614,18.141 -1.878,1.936 -3.649,4.444 -3.191,7.102 0.792,4.615 6.962,5.532 11.634,5.224 15.545,-1.023 31.008,-3.28 46.197,-6.744 14.266,-3.254 29.179,-7.572 43.24,-3.52 13.496,3.891 23.623,14.78 33.161,25.09 1.988,2.15 4.11,4.378 6.899,5.271 2.906,0.929 6.06,0.257 9.002,-0.549 8.794,-2.406 17.274,-5.96 25.155,-10.544 2.389,-1.39 4.877,-3.056 5.833,-5.649 C 88.416,46.439 87.4,43.353 86.295,40.598 80.747,26.771 66.293,-5.479 47.796,-5.166 28.242,-4.834 21.096,25.872 0,0"
             style="fill:#758949;fill-opacity:1;fill-rule:evenodd;stroke:none"
             id="path136"
             inkscape:connector-curvature="0" /></g><g
           id="g138"
           transform="translate(1279.3945,730.7047)"><path
             d="m 0,0 c -12.47,-15.293 -15.017,-37.993 -6.246,-55.67 2.325,-4.686 5.467,-9.584 4.457,-14.718 -1.94,-9.867 -17.863,-9.869 -23.724,-1.696 -5.86,8.171 -4.584,19.272 -3.051,29.211 2.007,13.025 4.015,26.05 6.023,39.076 0.73,4.738 1.326,10.063 -1.557,13.895 -2.666,3.545 -7.443,4.621 -11.826,5.306 -19.332,3.021 -40.99,4.097 -54.614,18.141 -1.879,1.936 -3.649,4.444 -3.191,7.103 0.791,4.614 6.961,5.531 11.633,5.223 15.545,-1.023 31.009,-3.281 46.198,-6.744 14.266,-3.253 29.179,-7.573 43.239,-3.519 13.496,3.891 23.623,14.779 33.161,25.089 1.989,2.15 4.111,4.378 6.899,5.271 2.906,0.929 6.061,0.257 9.003,-0.549 8.794,-2.406 17.273,-5.96 25.155,-10.544 2.389,-1.39 4.877,-3.056 5.832,-5.649 1.026,-2.787 0.01,-5.873 -1.095,-8.628 C 80.748,26.771 66.294,-5.479 47.797,-5.166 28.242,-4.834 21.097,25.872 0,0"
             style="fill:#758949;fill-opacity:1;fill-rule:evenodd;stroke:none"
             id="path140"
             inkscape:connector-curvature="0" /></g><g
           id="g142"
           transform="translate(226.8794,705.0162)"><path
             d="m 0,0 c 6.388,-6.826 7.803,-19.123 0.488,-24.944 -5.77,-4.591 -14.43,-3.581 -20.564,-7.673 -7.254,-4.838 -8.519,-14.892 -8.246,-23.608 0.353,-11.278 2.261,-22.919 8.54,-32.296 6.279,-9.376 17.771,-15.932 28.829,-13.68 11.147,2.27 19.119,12.799 21.834,23.846 2.716,11.047 1.196,22.64 -0.338,33.912 22.999,1.639 52.797,-1.128 59.27,-23.256 2.804,-9.585 -0.188,-19.762 -2.304,-29.522 -3.691,-17.022 -4.695,-34.623 -2.962,-51.954 0.58,-5.803 1.63,-11.943 5.533,-16.277 7.417,-8.236 22.002,-5.442 29.229,2.962 7.227,8.403 8.829,20.194 9.202,31.272 1.17,34.776 -6.916,69.821 -23.204,100.569 -1.824,3.442 -3.807,7.083 -3.533,10.968 0.47,6.677 7.269,11.031 13.67,12.989 18.343,5.613 39.665,-0.132 52.706,-14.2 8.308,-8.962 14.075,-21.371 25.511,-25.681 17.04,-6.423 35.858,12.177 34.383,30.326 -1.474,18.15 -17.265,32.428 -34.445,38.464 -17.181,6.036 -35.825,5.688 -54.015,6.535 -3.556,0.166 -7.243,0.416 -10.369,2.121 -4.636,2.527 -7.076,7.662 -9.57,12.317 C 101.643,76.795 65.241,99.767 27.159,101.553 32.799,84.34 40.765,67.891 50.772,52.792 36.192,47.464 19.707,54.363 7.996,64.553 c -11.71,10.19 -20.322,23.462 -31.393,34.343 -11.07,10.88 -26.164,19.611 -41.465,17.014 C -78.081,113.666 -90.685,98.65 -85.999,84.962 -78.227,62.261 -52.727,80.131 -42.04,68.967 -30.662,57.082 -51.401,41.932 -47.096,27.98 -40.699,7.252 -13.411,14.33 0,0"
             style="fill:#758949;fill-opacity:1;fill-rule:evenodd;stroke:none"
             id="path144"
             inkscape:connector-curvature="0" /></g><g
           id="g146"
           transform="translate(1107.3125,526.5817)"><path
             d="m 0,0 c 6.388,-6.825 7.803,-19.123 0.488,-24.943 -5.77,-4.591 -14.43,-3.582 -20.564,-7.674 -7.254,-4.838 -8.52,-14.892 -8.246,-23.607 0.353,-11.279 2.261,-22.92 8.54,-32.296 6.279,-9.377 17.771,-15.933 28.829,-13.681 11.147,2.27 19.118,12.799 21.834,23.846 2.716,11.047 1.196,22.64 -0.338,33.912 22.998,1.639 52.797,-1.127 59.27,-23.256 2.804,-9.585 -0.188,-19.762 -2.304,-29.522 -3.692,-17.022 -4.695,-34.623 -2.962,-51.954 0.58,-5.803 1.63,-11.943 5.532,-16.277 7.418,-8.236 22.002,-5.442 29.23,2.961 7.227,8.405 8.829,20.196 9.202,31.273 1.17,34.776 -6.916,69.821 -23.204,100.569 -1.825,3.442 -3.807,7.083 -3.534,10.968 0.471,6.677 7.271,11.031 13.671,12.989 18.343,5.613 39.665,-0.132 52.705,-14.2 8.309,-8.962 14.076,-21.371 25.512,-25.681 17.039,-6.423 35.859,12.177 34.384,30.326 -1.476,18.15 -17.267,32.428 -34.446,38.464 -17.181,6.036 -35.825,5.688 -54.015,6.535 -3.556,0.166 -7.243,0.416 -10.369,2.121 -4.636,2.527 -7.076,7.663 -9.57,12.317 C 101.643,76.796 65.241,99.768 27.159,101.554 32.799,84.34 40.765,67.891 50.772,52.792 36.192,47.464 19.707,54.363 7.996,64.553 c -11.71,10.19 -20.322,23.462 -31.393,34.343 -11.07,10.88 -26.164,19.612 -41.465,17.014 -13.219,-2.244 -25.823,-17.26 -21.136,-30.948 7.77,-22.7 33.27,-4.831 43.958,-15.995 C -30.662,57.082 -51.401,41.933 -47.096,27.98 -40.699,7.252 -13.411,14.33 0,0"
             style="fill:#758949;fill-opacity:1;fill-rule:evenodd;stroke:none"
             id="path148"
             inkscape:connector-curvature="0" /></g><g
           id="g150"
           transform="translate(61.4844,559.2286)"><path
             d="m 0,0 c -6.61,-0.363 -13.649,-1.945 -18.092,-6.853 -4.442,-4.908 -4.629,-13.925 1.043,-17.339 2.543,-1.531 5.658,-1.678 8.626,-1.73 20.957,-0.368 42.944,1.766 61.936,-7.103 8.138,-3.802 15.287,-9.463 23.35,-13.422 12.199,-5.989 25.949,-7.842 39.423,-9.613 51.821,-6.811 103.642,-13.622 155.464,-20.433 -22.879,-7.654 -39.161,-31.65 -37.821,-55.737 2.66,-5.034 10.854,-3.796 14.35,0.697 3.496,4.494 3.886,10.56 4.95,16.153 1.065,5.593 3.586,11.725 8.963,13.595 8.84,3.076 16.515,-7.831 16.938,-17.18 0.423,-9.349 -2.569,-19.219 1.161,-27.802 3.699,-8.51 13.304,-13.231 22.567,-13.787 9.263,-0.555 18.355,2.296 27.184,5.154 -4.057,15.775 -16.775,27.555 -25.807,41.11 -9.032,13.554 -13.853,33.297 -2.602,45.075 3.632,3.802 9.002,7.111 9.018,12.369 0.007,2.159 -0.975,4.214 -2.25,5.955 -10.223,13.957 -31.69,7.152 -48.445,2.845 -13.907,-3.575 -28.524,-4.36 -42.734,-2.298 -2.669,0.387 -5.495,0.959 -7.43,2.839 -2.161,2.102 -2.696,5.321 -3.093,8.309 -4.413,33.2 -5.906,66.788 -4.456,100.248 -12.568,-5.321 -14.669,-22.301 -12.493,-35.774 2.178,-13.473 6.535,-28.024 0.263,-40.145 -5.334,-10.309 -17.333,-15.783 -28.92,-16.466 -11.587,-0.683 -22.996,2.625 -34.132,5.898 -20.232,5.948 -40.462,11.896 -60.694,17.844 -2.71,0.797 -5.491,1.628 -7.726,3.357 C 50.415,2.05 53.435,16.28 45.829,23.185 41.385,21.473 36.528,20.843 31.795,21.363 38.531,13.399 42.978,0.881 39.157,-8.877 26.529,-3.562 14.044,0.771 0,0"
             style="fill:#758949;fill-opacity:1;fill-rule:evenodd;stroke:none"
             id="path152"
             inkscape:connector-curvature="0" /></g><g
           id="g154"
           transform="translate(927.8311,223.4904)"><path
             d="m 0,0 c -6.61,-0.363 -13.65,-1.945 -18.092,-6.854 -4.443,-4.907 -4.63,-13.924 1.042,-17.338 2.544,-1.531 5.658,-1.678 8.627,-1.731 20.956,-0.367 42.944,1.767 61.935,-7.102 8.139,-3.802 15.287,-9.463 23.35,-13.422 12.2,-5.99 25.95,-7.842 39.423,-9.613 51.821,-6.811 103.643,-13.623 155.464,-20.433 -22.878,-7.654 -39.161,-31.651 -37.82,-55.737 2.66,-5.035 10.854,-3.796 14.35,0.697 3.495,4.494 3.885,10.56 4.95,16.153 1.064,5.593 3.585,11.725 8.963,13.595 8.839,3.075 16.514,-7.831 16.937,-17.181 0.424,-9.348 -2.569,-19.218 1.162,-27.802 3.699,-8.509 13.304,-13.23 22.566,-13.786 9.264,-0.555 18.356,2.296 27.184,5.154 -4.057,15.774 -16.774,27.555 -25.807,41.109 -9.032,13.555 -13.852,33.298 -2.601,45.075 3.632,3.803 9.002,7.112 9.017,12.37 0.007,2.158 -0.974,4.213 -2.25,5.954 -10.222,13.957 -31.689,7.153 -48.445,2.846 -13.906,-3.575 -28.523,-4.36 -42.733,-2.298 -2.67,0.387 -5.496,0.958 -7.43,2.839 -2.161,2.102 -2.696,5.321 -3.094,8.309 -4.413,33.2 -5.906,66.788 -4.456,100.248 -12.568,-5.321 -14.669,-22.301 -12.492,-35.774 2.177,-13.473 6.534,-28.024 0.263,-40.145 -5.334,-10.31 -17.333,-15.782 -28.92,-16.466 -11.588,-0.683 -22.996,2.624 -34.133,5.898 -20.231,5.948 -40.462,11.896 -60.693,17.843 -2.711,0.797 -5.492,1.629 -7.726,3.358 C 50.414,2.05 53.435,16.279 45.828,23.185 41.384,21.473 36.527,20.843 31.794,21.363 38.53,13.399 42.978,0.881 39.156,-8.878 26.528,-3.562 14.043,0.771 0,0"
             style="fill:#758949;fill-opacity:1;fill-rule:evenodd;stroke:none"
             id="path156"
             inkscape:connector-curvature="0" /></g><g
           id="g158"
           transform="translate(353.3242,217.5773)"><path
             d="m 0,0 c 1.102,-9.066 9.497,-15.802 18.312,-18.189 8.817,-2.388 18.134,-1.42 27.261,-1.051 20.649,0.835 41.425,-1.515 61.365,-6.942 5.602,-9.653 -11.772,-18.964 -10.562,-30.06 0.334,-3.064 2.149,-5.825 4.485,-7.836 5.775,-4.97 14.997,-5.362 21.173,-0.901 6.176,4.46 8.701,13.34 5.797,20.383 -3.478,8.437 -13.755,15.517 -10.679,24.108 1.775,4.956 7.367,7.299 12.468,8.596 41.979,10.682 85.333,-11.223 128.642,-10.447 3.442,9.282 -4.195,19.633 -13.483,23.059 -9.289,3.426 -19.552,1.977 -29.41,1.055 -30.64,-2.865 -61.796,-0.123 -91.466,8.05 -6.092,15.256 13.128,29.936 12.387,46.347 -0.438,9.693 -8.103,17.867 -16.965,21.822 -8.861,3.955 -18.808,4.511 -28.499,5.008 C 98.313,65.937 108.007,49.84 119.587,35.239 93.606,36.431 67.859,42.524 44.101,53.105 37.006,49.846 38.367,38.452 44.429,33.532 50.491,28.612 58.799,27.913 66.385,26.059 82.626,22.086 111.28,-1.127 80.304,-2.82 74.049,-3.162 -0.218,1.796 0,0"
             style="fill:#758949;fill-opacity:1;fill-rule:evenodd;stroke:none"
             id="path160"
             inkscape:connector-curvature="0" /></g><g
           id="g162"
           transform="translate(912.1055,766.9679)"><path
             d="m 0,0 c 1.102,-9.067 9.497,-15.802 18.312,-18.19 8.817,-2.388 18.134,-1.42 27.261,-1.051 20.65,0.836 41.425,-1.514 61.366,-6.941 5.602,-9.654 -11.772,-18.965 -10.562,-30.061 0.334,-3.064 2.148,-5.825 4.484,-7.835 5.775,-4.97 14.998,-5.363 21.173,-0.902 6.176,4.461 8.701,13.341 5.797,20.384 -3.478,8.437 -13.755,15.516 -10.679,24.107 1.775,4.956 7.368,7.299 12.469,8.597 41.979,10.682 85.332,-11.224 128.642,-10.447 3.442,9.282 -4.196,19.632 -13.484,23.058 -9.289,3.426 -19.552,1.978 -29.409,1.056 -30.641,-2.865 -61.797,-0.123 -91.466,8.049 -6.093,15.257 13.127,29.936 12.386,46.347 -0.438,9.694 -8.103,17.867 -16.965,21.823 -8.86,3.955 -18.807,4.51 -28.499,5.007 C 98.314,65.936 108.007,49.839 119.587,35.238 93.606,36.43 67.859,42.524 44.101,53.104 37.006,49.846 38.367,38.452 44.429,33.532 50.491,28.612 58.8,27.913 66.386,26.058 82.626,22.085 111.28,-1.127 80.304,-2.82 74.049,-3.163 -0.218,1.795 0,0"
             style="fill:#758949;fill-opacity:1;fill-rule:evenodd;stroke:none"
             id="path164"
             inkscape:connector-curvature="0" /></g><g
           id="g166"
           transform="translate(653.9365,168.0578)"><path
             d="m 0,0 c 5.606,-1.039 11.811,-0.906 17.82,-1.021 17.842,-0.341 35.459,-3.048 50.361,-7.74 6.482,-2.041 13.128,-5.668 9.789,-9.011 -1.123,-1.126 -3.255,-1.967 -5.601,-2.516 -10.729,-2.511 -23.046,0.734 -34.417,2.488 -11.371,1.754 -28.269,0.156 -28.439,-5.543 -0.145,-4.821 12.492,-7.319 22.578,-6.983 10.085,0.337 20.531,2.117 29.993,0.419 -0.96,-1.98 -1.908,-4.087 -0.5,-6.005 1.407,-1.917 6.167,-3.419 9.986,-2.52 1.355,0.319 2.378,0.877 3.419,1.399 11.929,5.978 31.117,8.396 47.681,6.008 5.215,6.291 -7.811,12.561 -20.38,15.695 -5.358,1.335 -11.131,2.582 -14.769,4.885 -3.637,2.302 -4.049,6.076 0.897,7.733 2.886,0.968 6.685,0.963 10.211,0.922 9.353,-0.109 18.708,-0.22 28.061,-0.329 4.138,-0.049 8.471,-0.122 12.064,-1.103 6.179,-1.685 8.169,-5.409 9.583,-8.736 4.325,-10.174 8.661,-20.646 4.764,-30.86 -3.899,-10.213 -18.029,-20.243 -39.116,-22.816 -7.877,-0.962 -16.276,-0.852 -23.926,-2.166 -7.651,-1.313 -14.743,-4.821 -13.161,-8.625 1.599,-3.843 10.631,-5.727 15.685,-8.816 5.437,-3.324 5.944,-7.851 6.225,-12.065 0.338,-5.079 0.676,-10.158 1.015,-15.237 0.284,-4.252 -0.432,-9.389 -8.267,-11.422 -6.361,-1.65 -14.112,-0.332 -21.317,0.008 -7.205,0.341 -16.595,-1.556 -15.696,-4.982 22.692,-1.838 45.918,-2.173 68.802,-0.995 8.261,0.426 19.038,2.739 16.919,6.571 -2.22,4.011 -16.47,3.888 -19.181,7.831 -1.674,2.432 2.566,5.061 7.657,5.873 5.092,0.811 10.644,0.312 15.906,-0.195 -4.471,5.864 -14.673,10.667 -27.024,12.724 15.392,1.088 30.05,4.431 41.487,9.462 -14.122,2.123 -28.245,4.246 -42.367,6.369 17.55,7.296 35.765,15.04 43.862,25.45 2.894,3.72 4.374,7.651 5.839,11.556 1.029,2.742 2.058,5.484 3.087,8.227 3.994,10.645 8.005,21.45 5.84,32.214 -1.917,9.537 -8.653,18.736 -17.501,27.335 -6.109,5.939 -13.423,11.743 -23.873,16.091 -20.75,8.636 -50.146,10.23 -77.569,11.437 2.841,-4.948 12.502,-8.327 22.408,-10.323 9.906,-1.996 20.651,-3.021 30.169,-5.408 6.517,-1.634 13.041,-4.98 10.264,-8.233 -2.205,-2.58 -8.893,-3.396 -14.66,-3.844 C 70.379,20.542 36.096,19.33 1.557,18.187 25.96,13.571 -32.983,6.112 0,0"
             style="fill:#758949;fill-opacity:1;fill-rule:evenodd;stroke:none"
             id="path168"
             inkscape:connector-curvature="0" /></g><g
           id="g170"
           transform="translate(897.6885,512.2203)"><path
             d="m 0,0 c -33.028,3.651 -68.809,4.466 -98.296,11.41 -29.486,6.943 -49.069,23.518 -28.187,34.312 16,8.269 46.306,8.949 72.557,8.558 23.734,-0.353 49.75,-1.382 66.405,-8.102 15.607,-6.298 22.204,-17.192 43.928,-19.109 14.502,-1.28 29.556,2.656 36.244,7.921 6.69,5.265 6.58,11.487 4.4,17.32 -10.637,28.447 -71.514,52.769 -143.111,57.177 -15.59,6.18 -21.116,16.041 -13.596,24.262 7.52,8.222 27.696,14.378 49.645,15.148 10.542,0.371 22.146,-0.302 30.861,2.081 12.452,3.405 10.986,11.413 1.017,15.926 -9.968,4.513 -25.268,6.42 -39.763,8.128 -3.883,9.002 20.534,17.149 43.432,16.252 22.9,-0.898 41.305,-8.496 49.608,-17.014 8.301,-8.519 8.443,-17.895 8.475,-27.028 C 83.77,104.759 83.92,62.275 84.07,19.792 84.107,9.062 91.062,-4.787 83.488,-14.665 56.188,-12.678 29.2,-3.228 0,0"
             style="fill:#758949;fill-opacity:1;fill-rule:evenodd;stroke:none"
             id="path172"
             inkscape:connector-curvature="0" /></g><g
           id="g174"
           transform="translate(41.5259,327.4933)"><path
             d="m 0,0 c 7.146,0.512 15.524,1.99 18.646,8.439 4.044,8.355 -4.036,17.487 -12.027,22.209 -7.992,4.722 -17.757,9.49 -19.41,18.623 17.839,8.466 41.503,1.546 51.97,-15.197 5.228,16.266 -2.681,35.726 -17.775,43.732 17.037,-0.985 33.453,-9.89 43.568,-23.635 6.789,0.836 9.252,10.26 6.196,16.38 -3.055,6.12 -9.293,9.838 -14.657,14.082 -5.365,4.243 -10.457,10.323 -9.55,17.102 23.405,-2.263 44.9,-18.553 53.408,-40.474 11.725,5.221 13.479,24.282 2.904,31.557 10.753,-5.074 22.971,-12.116 24.164,-23.946 0.72,-7.141 -2.969,-13.888 -4.717,-20.849 -4.008,-15.953 3.312,-34.092 17.27,-42.795 6.997,-4.363 15.391,-6.54 21.495,-12.084 7.2,-6.539 9.937,-16.556 11.975,-26.066 7.278,-33.957 9.914,-68.906 7.812,-103.571 -12.315,2.053 -17.198,16.823 -19.626,29.07 -3.973,20.043 -7.945,40.086 -11.918,60.129 -2.104,10.616 -7.229,23.842 -18.05,23.655 -9.11,-0.156 -14.515,-10.153 -17,-18.919 -2.486,-8.765 -4.981,-19.007 -13.233,-22.87 -3.256,-1.524 -6.945,-1.759 -10.534,-1.968 -38.763,-2.263 -77.526,-4.527 -116.289,-6.79 17.127,-17.674 41.461,-26.481 65.568,-31.44 24.106,-4.959 48.866,-6.651 72.654,-12.965 7.126,-1.891 -3.125,-10.035 11.07,-14.708 10.457,7.999 -4.297,20.558 -3.239,31.868 0.367,3.913 -2.608,9.298 1.315,9.057 2.44,-0.15 4.201,-2.325 5.555,-4.36 12.382,-18.614 17.722,-40.895 22.842,-62.657 2.121,-9.017 3.981,-19.415 -1.612,-26.799 -7.286,-9.62 -23.001,-7.644 -32.446,-0.134 -9.445,7.509 -15.003,18.764 -22.755,28.012 -8.251,9.844 -19.144,17.454 -31.226,21.814 -8.119,2.931 -17.271,4.362 -25.298,1.187 -8.026,-3.174 -14.176,-12.104 -11.9,-20.43 5.01,-18.323 40.043,-15.302 42.06,-34.191 -19.211,6.191 -37.606,14.91 -54.562,25.86 -3.888,2.51 -7.812,5.251 -10.264,9.176 -2.25,3.602 -3.064,7.882 -4.348,11.93 -8.452,26.636 -38.402,48.107 -31.838,75.269 -12.104,-9.459 -18.25,-25.964 -15.281,-41.036 C -67.73,-67.432 -67.585,-26.959 -62.667,16.902 -82.399,20.966 -72.62,2.927 -61.37,-0.624 -44.357,-5.993 -17.606,-1.262 0,0"
             style="fill:#758949;fill-opacity:1;fill-rule:evenodd;stroke:none"
             id="path176"
             inkscape:connector-curvature="0" /></g><g
           id="g178"
           transform="translate(1194.3057,315.7541)"><path
             d="M 0,0 C 7.146,0.513 15.525,1.99 18.646,8.439 22.69,16.794 14.61,25.927 6.619,30.648 -1.372,35.37 -11.138,40.138 -12.79,49.271 5.048,57.737 28.713,50.817 39.18,34.074 44.408,50.341 36.498,69.8 21.404,77.806 c 17.037,-0.985 33.453,-9.89 43.569,-23.635 6.789,0.836 9.252,10.261 6.196,16.38 -3.056,6.12 -9.293,9.838 -14.657,14.082 -5.365,4.243 -10.457,10.323 -9.55,17.102 23.404,-2.263 44.899,-18.553 53.407,-40.474 11.726,5.222 13.48,24.282 2.904,31.557 10.753,-5.074 22.971,-12.115 24.165,-23.946 0.719,-7.141 -2.969,-13.888 -4.718,-20.849 -4.007,-15.953 3.312,-34.092 17.27,-42.795 6.997,-4.363 15.391,-6.54 21.495,-12.084 7.201,-6.539 9.937,-16.556 11.975,-26.066 7.278,-33.957 9.914,-68.906 7.812,-103.57 -12.315,2.052 -17.198,16.823 -19.626,29.07 -3.972,20.042 -7.945,40.085 -11.917,60.129 -2.105,10.615 -7.23,23.841 -18.05,23.654 -9.11,-0.156 -14.516,-10.153 -17.001,-18.919 -2.486,-8.765 -4.981,-19.007 -13.233,-22.87 -3.256,-1.524 -6.944,-1.759 -10.533,-1.968 -38.764,-2.263 -77.526,-4.526 -116.289,-6.79 17.126,-17.674 41.461,-26.481 65.567,-31.44 24.107,-4.959 48.867,-6.651 72.654,-12.965 7.127,-1.891 -3.124,-10.035 11.071,-14.708 10.457,7.999 -4.298,20.558 -3.239,31.868 0.366,3.914 -2.609,9.298 1.315,9.057 2.44,-0.15 4.2,-2.325 5.555,-4.36 12.382,-18.614 17.722,-40.895 22.842,-62.657 2.121,-9.017 3.981,-19.415 -1.613,-26.799 -7.286,-9.62 -23,-7.643 -32.445,-0.134 -9.446,7.51 -15.004,18.765 -22.756,28.012 -8.251,9.845 -19.143,17.454 -31.225,21.815 -8.12,2.93 -17.271,4.362 -25.298,1.187 -8.027,-3.175 -14.177,-12.105 -11.901,-20.431 5.011,-18.323 40.043,-15.301 42.06,-34.19 -19.211,6.19 -37.606,14.909 -54.562,25.859 -3.887,2.51 -7.811,5.252 -10.263,9.176 -2.25,3.602 -3.065,7.882 -4.349,11.93 -8.452,26.636 -11.838,8.927 -29.056,34.492 2.522,-53.038 -9.652,-6 -18.063,-0.258 -18.646,41.3 -18.502,81.773 -13.583,125.634 C -82.398,20.966 -72.62,2.927 -61.369,-0.624 -44.357,-5.993 -17.605,-1.262 0,0"
             style="fill:#758949;fill-opacity:1;fill-rule:evenodd;stroke:none"
             id="path180"
             inkscape:connector-curvature="0" /></g><g
           id="g182"
           transform="translate(400.1138,339.9318)"><path
             d="m 0,0 c 2.8,0.145 22.403,-1.674 24.652,0 2.25,1.675 11.285,0.094 9.207,1.978 0.375,-7.763 -0.044,-15.564 -1.245,-23.242 -0.358,-2.286 -0.822,-4.649 -2.194,-6.512 -2.819,-3.828 -8.293,-4.239 -13.046,-4.205 -21.442,0.15 -42.869,2.257 -63.929,6.29 -5.798,1.109 -13.321,1.598 -16.036,-3.645 -2.959,-5.714 3.481,-12.258 9.836,-13.27 6.354,-1.012 12.928,0.96 19.253,-0.225 2.273,-0.426 4.651,-1.41 5.753,-3.443 2.155,-3.977 -2.001,-8.634 -6.281,-10.098 -8.35,-2.855 -17.625,0.206 -25.178,4.769 -6.052,3.656 -19.153,18.182 -24.075,19.485 -14.823,3.924 -11.924,-10.619 -23.707,-12.629 -19.175,-3.271 -16.557,16.892 -5.632,23.664 14.027,8.695 37.662,8.266 53.545,9.4 C -31.197,-9.691 -27.918,-1.436 0,0"
             style="fill:#758949;fill-opacity:1;fill-rule:evenodd;stroke:none"
             id="path184"
             inkscape:connector-curvature="0" /></g><g
           id="g186"
           transform="translate(330.4062,85.2257)"><path
             d="m 0,0 c 55.042,-2.91 110.083,-5.821 165.125,-8.731 8.105,-0.429 18.397,-2.695 19.689,-10.708 1.497,-9.269 -11.075,-15.436 -11.764,-24.798 7.555,-2.112 15.501,-4.236 23.144,-2.465 7.643,1.769 14.664,8.874 13.44,16.623 -0.984,6.223 -6.856,11.446 -5.904,17.674 18.001,2.038 36.001,4.075 54.001,6.113 4.654,0.526 9.677,1.223 13.022,4.5 8.141,7.979 -0.449,21.316 -8.763,29.115 -7.165,6.722 -16.583,13.968 -25.816,10.614 -9.412,-3.42 -13.007,-16.318 -22.64,-19.055 -7.445,-2.115 -14.997,2.886 -20.45,8.379 -5.452,5.493 -10.549,12.044 -17.96,14.277 -7.411,2.233 -17.475,-3.246 -15.974,-10.839 1.082,-5.471 7.023,-8.208 11.848,-11.005 4.825,-2.798 9.644,-8.448 6.983,-13.35 C 148.289,6.975 116.438,8.315 92.667,26.119 74.391,39.808 61.196,62.887 38.653,66.518 34.832,56.761 42.394,46.332 50.461,39.646 58.529,32.96 68.256,26.641 70.817,16.48 54.249,19.916 38.116,25.445 22.923,32.895 27.087,23.191 34.632,15.86 40.057,7.68 26.754,8.158 11.188,-0.592 0,0"
             style="fill:#758949;fill-opacity:1;fill-rule:evenodd;stroke:none"
             id="path188"
             inkscape:connector-curvature="0" /></g><g
           id="g190"
           transform="translate(414.9312,841.0084)"><path
             d="m 0,0 c 3.303,-7.058 9.706,-13.181 17.462,-13.93 4.602,-0.445 9.154,1.001 13.551,2.428 6.618,2.148 13.236,4.295 19.854,6.443 2.458,0.798 5.014,1.606 7.579,1.284 4.28,-0.537 7.595,-4.13 9.467,-8.017 4.414,-9.163 2.309,-21.042 -4.984,-28.132 -6.216,-6.042 -15.149,-8.377 -22.077,-13.587 -5.798,-4.359 -10.183,-12.281 -6.971,-18.785 3.542,-7.173 13.33,-7.847 21.324,-7.522 2.511,0.103 5.112,0.227 7.356,1.361 8.118,4.103 5.655,16.816 11.108,24.096 4.677,6.245 14.318,6.735 21.312,3.276 6.993,-3.459 11.991,-9.849 16.861,-15.944 1.447,-1.81 3.257,-3.783 5.572,-3.693 1.472,0.057 2.785,0.98 3.758,2.086 4.2,4.766 2.971,12.409 -0.539,17.703 -3.509,5.294 -8.805,9.108 -13.096,13.791 -4.292,4.683 -7.714,11.057 -6.123,17.206 0.851,3.293 3.034,6.07 4.334,9.213 4.338,10.49 -2.454,23.04 -12.393,28.524 -9.938,5.483 -21.96,5.451 -33.237,4.154 C 39.4,19.571 15.61,21.583 -3.74,18.458 -4.17,12.247 -2.67,5.706 0,0"
             style="fill:#758949;fill-opacity:1;fill-rule:evenodd;stroke:none"
             id="path192"
             inkscape:connector-curvature="0" /></g><g
           id="g194"
           transform="translate(35.498,742.1666)"><path
             d="m 0,0 c 0.323,-2.94 0.686,-6.022 -0.411,-8.77 -0.95,-2.378 -2.911,-4.234 -5.086,-5.586 -8.33,-5.178 -19.697,-3.318 -27.598,2.493 -7.901,5.812 -12.825,14.851 -16.134,24.083 -7.613,21.234 -7.853,44.296 -8.007,66.852 -0.116,16.969 -0.232,33.938 -0.348,50.908 -0.012,1.742 0.067,3.705 1.353,4.88 1.236,1.129 3.109,1.088 4.782,0.98 22.687,-1.465 86.516,8.602 71.371,-26.71 C 4.065,72.16 -4.57,41.529 0,0"
             style="fill:#758949;fill-opacity:1;fill-rule:evenodd;stroke:none"
             id="path196"
             inkscape:connector-curvature="0" /></g><g
           id="g198"
           transform="translate(778.2979,795.7316)"><path
             d="M 0,0 C -3.924,1.367 -7.95,3.298 -12.039,2.558 -15.961,1.847 -19,-1.166 -22.515,-3.044 -35.529,-10 -50.986,-0.469 -62.322,8.978 c -1.835,1.529 -3.813,3.361 -3.895,5.748 -0.171,4.934 6.819,6.087 11.718,5.482 11.647,-1.437 23.294,-2.874 34.941,-4.311 6.27,-0.773 14.974,0.261 15.558,6.552 0.601,6.471 -8.14,8.922 -14.623,9.378 -10.34,0.729 -22.705,4.087 -25.43,14.087 -2.179,7.998 3.6,16.434 11.03,20.111 7.423,3.676 16.046,3.758 24.331,3.762 26.205,0.014 52.41,0.058 78.614,0.041 C 97.991,69.81 105.549,64.4 98.361,36.016 89.547,1.204 31.399,-10.938 0,0"
             style="fill:#758949;fill-opacity:1;fill-rule:evenodd;stroke:none"
             id="path200"
             inkscape:connector-curvature="0" /></g><g
           id="g202"
           transform="translate(461.8467,420.0793)"><path
             d="m 0,0 c 0.96,-3.871 1.808,-7.92 0.959,-11.817 -0.996,-4.573 -4.173,-8.305 -6.38,-12.431 -6.181,-11.558 -4.002,-27.002 5.135,-36.398 1.441,-1.483 3.14,-2.875 5.179,-3.219 6.855,-1.161 9.446,8.635 9.097,15.579 C 12.919,-27.018 11.849,-5.749 10.778,15.52 10.121,28.588 9.41,41.917 4.682,54.116 2.709,59.207 0.07,65.028 2.73,69.795 c 1.132,2.03 3.079,3.479 4.405,5.387 4.125,5.933 -0.25,15.606 -7.43,16.424 -1.987,0.227 -4.231,-0.045 -5.763,1.244 -1.391,1.171 -1.632,3.194 -1.698,5.012 -0.42,11.687 2.391,23.473 8.039,33.713 1.976,3.582 4.376,7.337 3.926,11.403 -1.79,16.153 -31.233,14.536 -29.774,-5.411 0.738,-10.096 9.303,-18.516 6.655,-28.969 -1.095,-4.318 -9.865,-10.36 -9.515,-14.266 0.675,-7.543 6.993,-5.916 13.807,-9.175 C -0.164,78.243 -0.783,80.615 -4.08,65.361 -9.314,41.137 -6.033,24.194 0,0"
             style="fill:#17181f;fill-opacity:1;fill-rule:evenodd;stroke:none"
             id="path204"
             inkscape:connector-curvature="0" /></g><g
           id="g206"
           transform="translate(1003.6953,205.7423)"><path
             d="m 0,0 c 0.96,-3.871 1.808,-7.92 0.959,-11.817 -0.996,-4.572 -4.173,-8.305 -6.38,-12.431 -6.18,-11.557 -4.001,-27.001 5.135,-36.398 1.441,-1.483 3.14,-2.875 5.179,-3.219 6.855,-1.161 9.447,8.636 9.097,15.579 -1.07,21.268 -2.141,42.538 -3.212,63.807 C 10.121,28.588 9.41,41.917 4.682,54.116 2.709,59.207 0.07,65.028 2.73,69.796 c 1.132,2.029 3.079,3.478 4.405,5.387 4.126,5.932 -0.25,15.605 -7.43,16.423 -1.987,0.227 -4.231,-0.045 -5.763,1.244 -1.391,1.171 -1.632,3.194 -1.698,5.012 -0.42,11.687 2.391,23.473 8.039,33.713 1.976,3.582 4.376,7.337 3.926,11.404 -1.79,16.152 -31.233,14.536 -29.774,-5.412 0.738,-10.095 9.303,-18.516 6.655,-28.968 -1.095,-4.319 -9.865,-10.361 -9.515,-14.266 0.675,-7.544 6.993,-5.917 13.807,-9.176 C -0.164,78.242 -0.783,80.615 -4.08,65.361 -9.314,41.137 -6.033,24.194 0,0"
             style="fill:#17181f;fill-opacity:1;fill-rule:evenodd;stroke:none"
             id="path208"
             inkscape:connector-curvature="0" /></g><g
           id="g210"
           transform="translate(738.9072,329.4523)"><path
             d="m 0,0 c -1.092,-0.552 -2.381,-0.483 -3.6,-0.381 -26.212,2.19 -51.488,14.206 -69.733,33.153 -2.223,2.309 -4.764,4.906 -7.968,4.84 -4.553,-0.091 -7.159,-5.907 -5.786,-10.249 1.373,-4.342 5.231,-7.352 8.91,-10.034 16.621,-12.116 33.89,-23.345 51.706,-33.623 5.032,-2.902 10.928,-7.637 9.152,-13.167 -0.436,-1.355 -1.316,-2.536 -1.743,-3.894 -1.892,-6.037 7.2,-10.9 12.512,-7.465 5.314,3.434 6.322,10.967 4.799,17.108 7.975,-1.542 14.467,7.525 14.446,15.649 C 12.675,0.06 8.648,7.57 6.697,15.455 1.87,34.956 7.057,64.777 -8.388,79.967 -15.761,64.87 7.404,3.742 0,0"
             style="fill:#17181f;fill-opacity:1;fill-rule:evenodd;stroke:none"
             id="path212"
             inkscape:connector-curvature="0" /></g><g
           id="g214"
           transform="translate(131.73,317.9279)"><path
             d="m 0,0 c -7.104,-7.331 1.931,-20.084 11.989,-21.827 10.058,-1.743 20.297,2.286 30.48,1.573 10.183,-0.714 21.286,-10.608 16.713,-19.734 -15.607,2.282 -31.948,-0.798 -45.652,-8.606 -4.052,-2.308 -8.394,-6.294 -7.164,-10.792 0.742,-2.711 3.32,-4.478 5.849,-5.704 15.547,-7.539 36.231,-2.019 45.954,12.265 5.771,1.636 12.394,-0.25 16.436,-4.682 -6.273,-5.197 -10.583,-12.709 -11.902,-20.748 4.276,-0.971 8.553,-1.942 12.83,-2.914 8.528,2.136 9.654,13.742 8.335,22.434 -1.32,8.692 -2.216,19.723 5.407,24.102 2.701,1.552 5.927,1.812 9.034,2.035 20.027,1.443 40.326,2.871 60.052,-0.884 19.725,-3.757 39.145,-13.367 50.52,-29.914 2.803,-4.077 5.139,-9.234 3.345,-13.845 -2.451,-6.3 -10.54,-7.548 -16.939,-9.726 -14.008,-4.767 -24.234,-18.974 -24.309,-33.77 -0.046,-9.192 8.998,-20.305 16.472,-14.955 8.979,6.426 -3.227,21.059 0.688,31.383 5.194,13.699 31.921,6.907 36.091,20.951 2.881,9.709 -8.582,16.861 -14.662,24.961 -5.746,7.656 -6.922,17.803 -11.514,26.203 -4.591,8.399 -16.068,14.912 -23.504,8.884 -4.645,14.415 2.644,31.694 16.212,38.425 6.82,3.384 14.637,4.24 21.611,7.293 6.974,3.052 13.496,9.641 12.528,17.193 -1.189,9.281 -13.341,13.61 -22.11,10.345 -8.769,-3.265 -14.687,-11.326 -20.082,-18.971 -9.089,-12.882 -18.436,-26.385 -20.814,-41.97 -0.408,-2.675 -0.777,-5.702 -2.939,-7.329 -1.457,-1.098 -3.39,-1.265 -5.21,-1.388 -10.241,-0.689 -22.685,-0.107 -27.727,8.832 -2.194,3.89 -2.382,8.539 -2.993,12.963 C 118.966,31.507 91.49,55.875 61.792,56.39 62.803,56.372 85.426,27.354 88.619,24.233 93.759,19.211 118.066,-0.283 113.567,-9.044 107.213,-21.421 15.403,-1.5 0,0"
             style="fill:#17181f;fill-opacity:1;fill-rule:evenodd;stroke:none"
             id="path216"
             inkscape:connector-curvature="0" /></g><g
           id="g218"
           transform="translate(627.3193,165.7902)"><path
             d="m 0,0 c -0.339,-3.269 0.146,-6.971 -1.999,-9.461 -1.973,-2.288 -5.359,-2.56 -8.378,-2.664 -23.777,-0.823 -47.555,-1.647 -71.332,-2.471 -9.014,8.394 -22.789,11.275 -34.411,7.197 10.1,-21.609 37.198,-33.588 59.978,-26.517 5.822,1.808 11.329,4.685 17.327,5.77 6.061,1.096 12.287,0.302 18.395,-0.495 2.33,-0.303 4.746,-0.637 6.722,-1.908 6.267,-4.03 3.822,-14.205 -1.644,-19.27 -5.465,-5.066 -12.977,-7.762 -17.704,-13.522 -11.051,-13.47 -0.987,-33.352 9.096,-47.56 12.518,2.638 16.912,18.202 17.291,30.99 0.379,12.788 0.041,27.602 9.877,35.783 8.19,-0.396 16.039,-5.182 20.141,-12.28 6.87,1.869 8.865,11.68 4.966,17.638 -3.897,5.958 -11.391,8.494 -18.472,9.23 -1.354,12.882 13.307,21.727 26.193,23.051 12.482,1.283 25.115,-1.149 37.609,0.012 12.495,1.161 25.935,7.322 29.904,19.226 3.232,9.696 -0.891,20.632 -7.788,28.174 -6.899,7.543 -16.19,12.378 -25.276,17.058 8.171,-9.98 12.489,-23.037 11.879,-35.92 C 59.774,28.332 38.73,40.132 21.592,56.141 21.131,40.403 59.502,29.403 45.514,19.329 32.646,10.063 2.904,27.97 0,0"
             style="fill:#17181f;fill-opacity:1;fill-rule:evenodd;stroke:none"
             id="path220"
             inkscape:connector-curvature="0" /></g><g
           id="g222"
           transform="translate(119.9629,713.4996)"><path
             d="m 0,0 c -10.716,3.287 -23.874,6.905 -31.9,-0.918 -8.443,-8.23 -0.86,-25.663 10.916,-25.097 4.778,0.229 9.103,2.75 13.683,4.132 16.902,5.1 34.317,-5.574 51.93,-6.783 3.754,-0.258 7.757,-0.142 10.961,-2.116 6.296,-3.881 5.681,-13.865 0.901,-19.51 -4.779,-5.645 -12.124,-8.241 -18.877,-11.259 -6.752,-3.018 -13.751,-7.285 -16.114,-14.294 13.078,-4.563 27.721,-4.493 40.755,0.194 -1.303,4.692 0.749,10.115 4.831,12.769 7.451,-9.561 4.604,-23.387 0.357,-34.74 -4.247,-11.352 -9.63,-23.52 -6.129,-35.125 6.564,-2.116 13.91,1.759 17.775,7.471 3.866,5.711 4.954,12.825 5.479,19.701 1.472,19.258 -0.719,38.79 -6.421,57.244 -4.985,-3.824 -12.629,3.831 -9.886,9.483 2.742,5.652 11.428,6.196 16.177,2.082 4.75,-4.113 6.016,-11.091 5.191,-17.319 3.136,4.804 6.398,10.054 6.057,15.782 -0.341,5.727 -6.253,11.345 -11.533,9.099 -0.699,21.082 2.792,42.295 10.21,62.042 2.419,6.439 5.298,12.977 5.068,19.851 -0.23,6.875 -4.755,14.215 -11.597,14.923 C 83.28,56.716 81.141,44.817 81.616,33.018 73.945,34.739 65.63,33.391 58.896,29.335 67.486,34.509 80.243,-0.556 69.748,-8.633 57.407,-18.131 13.311,-4.083 0,0"
             style="fill:#17181f;fill-opacity:1;fill-rule:evenodd;stroke:none"
             id="path224"
             inkscape:connector-curvature="0" /></g><g
           id="g226"
           transform="translate(615.6094,797.4738)"><path
             d="m 0,0 c -2.425,-9.014 -10.831,-14.828 -17.177,-21.673 -6.345,-6.846 -10.712,-18.146 -4.421,-25.041 5.359,-5.872 16.878,-3.274 19.196,4.33 0.798,2.616 0.623,5.415 0.896,8.136 1.256,12.519 11.511,21.926 17.777,32.836 1.137,1.979 2.175,4.136 2.123,6.418 -0.051,2.181 -1.092,4.206 -2.198,6.087 -4.366,7.431 -10.139,14.032 -16.922,19.35 -1.56,1.224 -3.332,2.676 -3.345,4.659 -0.016,2.14 2.012,3.651 3.825,4.791 10.125,6.365 20.25,12.73 30.376,19.095 -2.394,18.848 -55.397,18.987 -60.611,0.99 C -37.278,36.516 7.422,27.784 0,0"
             style="fill:#17181f;fill-opacity:1;fill-rule:evenodd;stroke:none"
             id="path228"
             inkscape:connector-curvature="0" /></g><g
           id="g230"
           transform="translate(763.8594,677.6266)"><path
             d="m 0,0 c -6.165,0.261 -12.488,0.501 -18.349,-1.43 1.858,-6.87 8.041,-11.896 14.75,-14.27 6.709,-2.374 13.97,-2.526 21.086,-2.653 14.934,-0.266 29.867,-0.533 44.801,-0.799 4.984,-0.089 11.739,-2.031 11.199,-6.987 -11.203,-3.442 -22.406,-6.883 -33.61,-10.325 -4.711,-1.448 -10.411,-4.213 -10.166,-9.136 0.286,-5.761 7.92,-7.275 13.643,-7.99 5.724,-0.715 12.896,-5.666 9.864,-10.573 -6.972,0.133 -13.692,-5.038 -15.348,-11.812 4.789,-3.208 11.335,-2.666 16.509,-0.125 5.174,2.541 9.279,6.781 13.272,10.938 12.666,13.185 64.003,48.539 33.313,59.599 C 72.5,4.692 30.141,-1.275 0,0"
             style="fill:#17181f;fill-opacity:1;fill-rule:evenodd;stroke:none"
             id="path232"
             inkscape:connector-curvature="0" /></g><g
           id="g234"
           transform="translate(527.6426,686.9962)"><path
             d="m 0,0 c 1.302,-8.96 9.188,-16.533 18.193,-17.47 4.084,-0.426 8.192,0.38 12.298,0.391 4.106,0.011 8.554,-0.976 11.175,-4.136 2.622,-3.16 2.164,-8.89 -1.626,-10.472 -2.159,-0.9 -4.616,-0.268 -6.955,-0.366 -8.543,-0.358 -13.309,-12.993 -7.129,-18.904 6.179,-5.911 18.59,-0.59 18.568,7.961 12.002,0.417 24.08,-1.452 35.396,-5.476 -1.628,-8.163 -6.042,-15.744 -12.338,-21.189 -3.053,-2.641 -6.936,-5.768 -6.125,-9.722 0.464,-2.262 2.394,-3.885 4.209,-5.312 3.043,-2.393 6.575,-4.904 10.406,-4.35 5.689,0.821 8.2,7.629 8.668,13.357 0.857,10.474 -1.291,21.177 -6.122,30.51 3.554,1.22 7.652,3.034 8.362,6.724 0.928,4.813 -4.452,8.177 -8.851,10.336 -4.4,2.159 -9.38,6.585 -7.261,11.005 0.794,1.656 2.433,2.726 4.055,3.589 14.98,7.971 35.704,6.191 46.086,19.614 3.793,4.904 5.068,12.814 0.335,16.818 -2.031,1.718 -4.739,2.351 -7.334,2.931 -4.791,1.071 -10.328,1.987 -14.173,-1.065 -4.255,-3.377 -4.171,-9.708 -4.156,-15.14 0.013,-5.432 -1.255,-12.031 -6.38,-13.833 -2.994,-1.052 -6.267,-0.006 -9.315,0.882 -6.316,1.84 -12.831,3.002 -19.394,3.458 -1.613,0.112 -3.374,0.14 -4.668,-0.829 -1.902,-1.423 -1.897,-4.241 -1.56,-6.592 0.991,-6.924 3.273,-13.66 6.693,-19.762 -11.35,12.897 -20.002,28.157 -25.242,44.519 -0.857,2.677 -1.708,5.521 -3.765,7.436 -2.059,1.916 -5.779,2.358 -7.483,0.122 C 23.838,24.078 23.611,22.832 23.553,21.63 23.102,12.352 41.185,-0.835 38.855,-6.529 34.608,-16.913 5.987,-1.81 0,0"
             style="fill:#17181f;fill-opacity:1;fill-rule:evenodd;stroke:none"
             id="path236"
             inkscape:connector-curvature="0" /></g><g
           id="g238"
           transform="translate(150.9629,516.1666)"><path
             d="m 0,0 c -8.238,-8.093 -8.675,-21.602 -4.613,-32.412 3.734,-9.941 12.36,-19.347 22.974,-19.007 1.844,-4.662 -1.438,-9.767 -5.145,-13.142 -3.706,-3.377 -8.217,-6.366 -9.884,-11.094 -1.937,-5.495 1.262,-12.255 6.739,-14.241 5.477,-1.987 12.265,1.151 14.301,6.61 1.512,4.053 0.573,8.578 1.124,12.869 0.906,7.067 6.263,13.365 13.094,15.394 -4.509,15.867 -30.303,21.298 -29.279,37.762 11.435,3.158 23.051,-4.84 30.442,-14.118 4.186,-5.254 10.163,-11.83 16.244,-8.975 3.042,1.427 4.595,4.81 5.656,7.999 8.28,24.908 -0.051,54.472 -20.12,71.391 C 38.554,25.17 44.874,9.777 56.736,2.004 49.375,0.344 41.924,4.631 36.546,9.923 c -5.379,5.293 -9.63,11.762 -15.665,16.29 -7.538,5.657 -17.093,7.736 -26.332,9.595 -13.569,2.73 -27.171,5.299 -40.8,7.707 -6.261,1.105 -13.72,1.798 -17.989,-2.913 -4.252,-4.692 -2.632,-12.626 1.839,-17.111 4.471,-4.484 10.89,-6.325 17.06,-7.748 C -24.62,10.967 -3.252,9.007 17.992,9.935 25.2,10.25 30.351,8.751 30.216,1.416 20.342,3.333 8.708,8.554 0,0"
             style="fill:#17181f;fill-opacity:1;fill-rule:evenodd;stroke:none"
             id="path240"
             inkscape:connector-curvature="0" /></g><g
           id="g242"
           transform="translate(620.7803,482.1549)"><path
             d="m 0,0 c -8.062,-0.332 -17.468,-1.606 -21.458,-8.619 -2.167,-3.81 -2.127,-8.439 -2.027,-12.821 0.166,-7.311 0.332,-14.622 0.498,-21.933 0.203,-8.968 1.42,-19.657 9.386,-23.782 3.991,-2.066 8.728,-1.854 13.213,-1.593 42.299,2.471 84.599,4.942 126.898,7.413 11.393,0.666 24.797,0.447 31.574,-8.736 3.326,-4.507 4.257,-10.313 4.726,-15.895 1.963,-23.399 -0.81,-51.043 17.233,-66.071 2.302,-1.918 5.118,-3.587 8.103,-3.311 7.094,0.656 8.589,10.309 7.948,17.405 -3.901,43.154 -13.268,85.812 -27.809,126.63 -6.879,19.308 -15.014,38.718 -15.453,59.209 -0.176,8.206 -2.125,19.742 -10.317,19.254 -5.572,-0.332 -8.46,-6.573 -10.689,-11.69 C 121.332,31.364 102.482,18.584 79.615,7.973 54.229,-3.809 27.838,1.145 0,0"
             style="fill:#758949;fill-opacity:1;fill-rule:evenodd;stroke:none"
             id="path244"
             inkscape:connector-curvature="0" /></g><g
           id="g246"
           transform="translate(962.4727,419.8878)"><path
             d="m 0,0 c -2.055,-0.349 -4.453,-1.69 -5.471,-9.071 -0.552,-4.011 -0.542,-8.884 -0.516,-13.496 0.042,-7.696 0.084,-15.39 0.127,-23.085 0.051,-9.441 0.362,-20.691 2.392,-25.033 1.018,-2.174 2.226,-1.952 3.369,-1.676 10.786,2.601 21.57,5.202 32.355,7.802 2.904,0.701 6.322,0.47 8.05,-9.195 0.848,-4.743 1.086,-10.856 1.205,-16.731 0.501,-24.629 -0.206,-53.726 4.393,-69.544 0.587,-2.018 1.306,-3.776 2.067,-3.485 1.808,0.691 2.189,10.851 2.026,18.32 -0.994,45.423 -3.383,90.323 -7.09,133.287 -1.754,20.322 -3.828,40.753 -3.94,62.321 -0.045,8.637 -0.542,20.78 -2.631,20.266 C 34.916,70.331 34.18,63.761 33.611,58.375 30.936,33.013 26.13,19.562 20.3,8.392 13.826,-4.009 7.098,1.205 0,0"
             style="fill:#758949;fill-opacity:1;fill-rule:evenodd;stroke:none"
             id="path248"
             inkscape:connector-curvature="0" /></g><g
           id="g250"
           transform="translate(631.0625,502.5045)"><path
             d="m 0,0 c -3.308,-8.459 -4.477,-18.384 -0.205,-26.399 4.272,-8.016 15.318,-12.643 22.983,-7.769 5.342,3.397 7.632,10.411 6.649,16.665 -0.985,6.254 -4.743,11.774 -9.258,16.212 -1.619,1.593 -3.415,3.181 -4.108,5.344 -0.889,2.777 0.257,5.752 1.386,8.44 l 12.727,30.303 c 3.798,-5.064 7.752,-10.269 13.249,-13.405 5.498,-3.138 12.999,-3.674 17.807,0.442 4.808,4.116 4.497,13.383 -1.36,15.786 -2.789,1.144 -5.936,0.578 -8.95,0.496 -5.36,-0.147 -10.755,1.348 -15.274,4.235 -1.786,1.139 -3.485,2.55 -4.42,4.45 -3.594,7.3 5.393,13.967 10.123,20.591 5.737,8.035 4.48,26.908 -6.511,31.023 C 17.157,113.033 25.96,86.236 21.536,76.322 12.073,55.113 -14.311,71.207 -32.112,63.643 9.265,53.306 15.06,38.514 0,0"
             style="fill:#17181f;fill-opacity:1;fill-rule:evenodd;stroke:none"
             id="path252"
             inkscape:connector-curvature="0" /></g><g
           id="g254"
           transform="translate(36.0068,887.0929)"><path
             d="m 0,0 c -5.354,-18.366 2.443,-39.775 18.353,-50.397 7.295,-4.87 15.923,-7.576 22.903,-12.888 15.451,-11.758 18.95,-36.414 7.381,-52.007 -6.471,-8.723 -17.456,-18.106 -12.779,-27.91 17.97,6.583 31.153,24.581 32.01,43.7 0.857,19.119 -10.663,38.224 -27.972,46.389 11.077,6.14 24.773,-2.95 31.646,-13.588 6.873,-10.637 10.966,-23.616 21.019,-31.32 0.91,13.292 -4.372,26.879 -14.019,36.066 19.454,-2.939 37.13,-15.851 45.846,-33.49 3.403,7.029 1.329,15.723 -3.185,22.096 -4.515,6.373 -11.107,10.911 -17.558,15.313 l 114.375,1.167 c -16.883,6.465 -35.208,9.133 -53.233,7.753 8.888,6.115 17.776,12.23 26.665,18.345 -67.267,1.78 -134.533,3.559 -201.8,5.339"
             style="fill:#17181f;fill-opacity:1;fill-rule:evenodd;stroke:none"
             id="path256"
             inkscape:connector-curvature="0" /></g><g
           id="g258"
           transform="translate(383.0757,733.0734)"><path
             d="m 0,0 c 2.275,-3.031 6.029,-4.49 9.584,-5.804 6.164,-2.278 12.327,-4.556 18.49,-6.835 4.605,-1.702 9.955,-4.311 10.472,-9.193 0.778,-7.328 -9.263,-10.139 -16.631,-10.085 -23.628,0.173 -47.247,1.558 -70.733,4.147 -5.667,0.625 -11.73,1.251 -16.778,-1.398 -5.048,-2.651 -7.971,-10.016 -4.118,-14.219 2.167,-2.364 5.611,-2.948 8.788,-3.397 22.843,-3.228 46.26,-6.44 68.81,-1.564 6.439,1.392 13.101,3.44 19.48,1.793 6.379,-1.647 11.826,-8.939 8.77,-14.775 -1.359,-2.596 -4.004,-4.234 -6.607,-5.579 -7.648,-3.95 -16.032,-6.466 -24.591,-7.379 -3.991,-0.426 -8.214,-0.568 -11.613,-2.703 -3.399,-2.134 -5.369,-7.171 -2.788,-10.244 1.491,-1.775 3.948,-2.334 6.231,-2.739 8.357,-1.483 17.1,-2.264 25.222,0.2 16.268,4.934 26.168,21.632 30.516,38.067 3.87,14.623 6.997,32.968 21.391,37.615 10.368,3.348 23.695,-2.097 31.477,5.528 -9.488,11.131 -27.992,13.023 -39.536,4.043 -2.06,-1.602 -4.146,-3.586 -6.755,-3.66 -2.175,-0.062 -4.144,1.256 -5.754,2.718 -5.475,4.969 -8.688,12.339 -8.602,19.732 0.041,3.463 0.719,7.168 -0.93,10.214 -1.212,2.24 -3.473,3.684 -5.678,4.957 C 23.751,37.727 7.596,42.894 -8.911,44.478 -5.653,36.758 17.23,23.282 16.921,16.787 16.474,7.408 -9.975,13.287 0,0"
             style="fill:#17181f;fill-opacity:1;fill-rule:evenodd;stroke:none"
             id="path260"
             inkscape:connector-curvature="0" /></g><g
           id="g262"
           transform="translate(924.0967,574.7042)"><path
             d="m 0,0 c 2.275,-3.031 6.029,-4.49 9.584,-5.804 6.163,-2.278 12.327,-4.556 18.49,-6.835 4.605,-1.702 9.954,-4.311 10.473,-9.193 0.776,-7.328 -9.264,-10.139 -16.632,-10.085 -23.628,0.173 -47.247,1.558 -70.733,4.147 -5.666,0.625 -11.73,1.251 -16.778,-1.398 -5.048,-2.651 -7.97,-10.016 -4.118,-14.218 2.167,-2.365 5.611,-2.949 8.787,-3.398 22.844,-3.228 46.262,-6.44 68.811,-1.564 6.439,1.392 13.101,3.44 19.48,1.793 6.379,-1.647 11.825,-8.939 8.771,-14.775 -1.36,-2.596 -4.005,-4.234 -6.609,-5.579 -7.647,-3.95 -16.032,-6.465 -24.59,-7.379 -3.991,-0.426 -8.214,-0.568 -11.613,-2.703 -3.398,-2.134 -5.369,-7.171 -2.788,-10.244 1.491,-1.775 3.948,-2.334 6.231,-2.739 8.357,-1.483 17.099,-2.264 25.222,0.2 16.269,4.934 26.168,21.633 30.517,38.067 3.869,14.623 6.996,32.968 21.391,37.615 10.367,3.348 23.694,-2.097 31.476,5.528 -9.487,11.131 -27.991,13.024 -39.535,4.043 -2.061,-1.602 -4.147,-3.586 -6.756,-3.66 -2.175,-0.062 -4.143,1.256 -5.755,2.718 -5.474,4.969 -8.687,12.339 -8.6,19.732 0.04,3.463 0.717,7.168 -0.931,10.214 -1.211,2.24 -3.473,3.684 -5.679,4.957 C 23.751,37.727 7.597,42.894 -8.911,44.478 -5.653,36.758 17.23,23.282 16.921,16.787 16.474,7.408 -9.975,13.287 0,0"
             style="fill:#17181f;fill-opacity:1;fill-rule:evenodd;stroke:none"
             id="path264"
             inkscape:connector-curvature="0" /></g><g
           id="g266"
           transform="translate(850.292,373.8566)"><path
             d="m 0,0 c 2.275,-3.031 6.029,-4.489 9.584,-5.804 6.164,-2.278 12.327,-4.556 18.49,-6.835 4.605,-1.702 9.954,-4.311 10.473,-9.193 0.776,-7.327 -9.264,-10.139 -16.632,-10.085 -23.628,0.173 -47.247,1.558 -70.733,4.147 -5.666,0.625 -11.73,1.251 -16.778,-1.399 -5.048,-2.649 -7.97,-10.015 -4.118,-14.218 2.167,-2.364 5.611,-2.948 8.788,-3.397 22.843,-3.228 46.261,-6.44 68.81,-1.565 6.439,1.393 13.101,3.441 19.48,1.794 6.379,-1.647 11.826,-8.938 8.771,-14.775 -1.36,-2.596 -4.005,-4.234 -6.608,-5.579 -7.648,-3.949 -16.033,-6.466 -24.591,-7.379 -3.991,-0.426 -8.214,-0.568 -11.613,-2.703 -3.398,-2.134 -5.369,-7.171 -2.788,-10.244 1.491,-1.775 3.948,-2.334 6.231,-2.74 8.357,-1.481 17.099,-2.262 25.222,0.201 16.269,4.934 26.168,21.632 30.517,38.067 3.869,14.623 6.996,32.968 21.391,37.615 10.367,3.348 23.694,-2.096 31.476,5.528 C 95.885,2.567 77.381,4.46 65.837,-4.521 63.776,-6.123 61.69,-8.107 59.081,-8.182 c -2.175,-0.061 -4.143,1.257 -5.755,2.719 -5.474,4.969 -8.686,12.339 -8.6,19.733 0.04,3.462 0.717,7.167 -0.931,10.213 -1.211,2.24 -3.473,3.685 -5.678,4.957 C 23.752,37.728 7.597,42.894 -8.911,44.479 -5.653,36.758 17.23,23.282 16.921,16.786 16.474,7.408 -9.975,13.287 0,0"
             style="fill:#17181f;fill-opacity:1;fill-rule:evenodd;stroke:none"
             id="path268"
             inkscape:connector-curvature="0" /></g><g
           id="g270"
           transform="translate(1034.7363,791.8873)"><path
             d="m 0,0 c 2.275,-3.031 6.03,-4.489 9.585,-5.803 6.163,-2.279 12.326,-4.557 18.49,-6.836 4.604,-1.702 9.954,-4.311 10.472,-9.193 0.777,-7.327 -9.263,-10.139 -16.632,-10.085 -23.628,0.173 -47.246,1.558 -70.732,4.147 -5.667,0.625 -11.731,1.252 -16.778,-1.398 -5.048,-2.65 -7.971,-10.016 -4.119,-14.218 2.168,-2.365 5.612,-2.949 8.788,-3.398 22.844,-3.228 46.261,-6.44 68.811,-1.564 6.439,1.392 13.1,3.44 19.479,1.793 6.379,-1.647 11.826,-8.938 8.771,-14.775 -1.359,-2.596 -4.004,-4.234 -6.608,-5.579 -7.647,-3.949 -16.032,-6.466 -24.59,-7.379 -3.991,-0.426 -8.215,-0.568 -11.614,-2.703 -3.398,-2.134 -5.369,-7.171 -2.788,-10.244 1.491,-1.775 3.948,-2.334 6.231,-2.739 8.358,-1.482 17.1,-2.264 25.222,0.2 16.269,4.934 26.168,21.633 30.517,38.067 3.869,14.623 6.997,32.968 21.391,37.616 10.368,3.347 23.695,-2.097 31.476,5.527 C 95.885,2.567 77.381,4.46 65.837,-4.52 63.776,-6.123 61.69,-8.107 59.081,-8.181 c -2.175,-0.062 -4.143,1.256 -5.754,2.718 -5.474,4.969 -8.687,12.339 -8.601,19.733 0.041,3.463 0.718,7.167 -0.93,10.213 -1.212,2.24 -3.473,3.685 -5.679,4.957 C 23.752,37.728 7.597,42.894 -8.91,44.478 -5.652,36.758 17.231,23.282 16.922,16.787 16.475,7.409 -9.974,13.287 0,0"
             style="fill:#17181f;fill-opacity:1;fill-rule:evenodd;stroke:none"
             id="path272"
             inkscape:connector-curvature="0" /></g><g
           id="g274"
           transform="translate(483.3369,289.6906)"><path
             d="m 0,0 c -4.381,-0.251 -9.232,-0.714 -12.194,-3.951 -4.91,-5.364 -0.737,-14.715 5.843,-17.808 6.581,-3.094 14.242,-2.053 21.5,-1.636 14.337,0.823 28.827,-1.094 42.456,-5.615 4.742,-1.572 9.662,-3.676 12.462,-7.811 3.032,-4.476 2.912,-10.297 2.681,-15.698 l -2.338,-54.627 c -0.196,-4.567 0.509,-10.448 4.924,-11.633 4.026,-1.08 7.562,2.872 9.467,6.58 10.598,20.624 5.644,45.458 0.448,68.055 16.444,1.628 33.488,-6.504 42.569,-20.31 3.437,-5.224 7.528,-12.089 13.701,-11.093 6.54,1.057 7.963,9.751 7.645,16.368 -0.214,4.44 -0.638,9.236 -3.581,12.566 -5.282,5.977 -15.144,3.893 -22.347,7.32 -10.372,4.935 -11.837,18.942 -11.045,30.401 0.793,11.458 1.681,24.828 -6.924,32.435 -1.652,1.46 -4.103,2.62 -5.985,1.474 C 98.114,24.304 97.565,22.922 97.139,21.621 90.299,0.792 99.467,-25.476 69.484,-11.183 45.986,0.02 26.747,1.529 0,0"
             style="fill:#17181f;fill-opacity:1;fill-rule:evenodd;stroke:none"
             id="path276"
             inkscape:connector-curvature="0" /></g><g
           id="g278"
           transform="translate(532.6299,475.256)"><path
             d="m 0,0 c 3.49,-9.196 -4.745,-18.402 -12.503,-24.449 -7.757,-6.048 -16.774,-13.78 -15.299,-23.504 1.091,-7.182 8.107,-12.353 15.293,-13.415 7.186,-1.063 14.445,1.156 21.171,3.899 2.003,0.817 4.072,1.747 5.407,3.449 4.123,5.258 -1.239,13.624 2.02,19.457 3.877,6.942 14.546,3.427 20.866,-1.397 4.292,-3.277 8.587,-7.068 10.271,-12.2 1.849,-5.644 0.196,-11.745 -0.362,-17.658 -0.557,-5.913 0.615,-12.912 5.83,-15.753 5.129,-2.793 11.622,-0.201 17.255,-1.742 12.159,6.14 14.547,23.516 8.776,35.855 -5.772,12.338 -17.205,20.876 -27.956,29.24 -2.739,2.13 -5.632,4.544 -6.413,7.924 -1.661,7.191 7.082,12.484 14.448,12.966 7.365,0.481 15.509,-1.037 21.556,3.195 5.591,3.914 7.287,11.526 6.862,18.338 -0.374,5.99 -2.732,12.689 -8.334,14.843 -5.511,2.118 -11.516,-1.047 -16.566,-4.106 L 33.761,17.64 c -1.241,-0.752 -2.594,-1.532 -4.039,-1.406 -1.418,0.124 -2.61,1.098 -3.598,2.121 -7.574,7.852 -8.273,19.868 -12.511,29.92 -6.062,14.385 -21.906,26.793 -37.83,26.12 -6.036,-13.501 13.01,-21.758 5.2,-32.858 -4.539,-6.452 -20.198,-3.985 -26.477,-8.294 C -78.445,10.631 -4.699,12.379 0,0"
             style="fill:#17181f;fill-opacity:1;fill-rule:evenodd;stroke:none"
             id="path280"
             inkscape:connector-curvature="0" /></g><g
           id="g282"
           transform="translate(1166.542,613.7775)"><path
             d="m 0,0 c 3.489,-9.196 -4.746,-18.402 -12.503,-24.449 -7.757,-6.048 -16.775,-13.78 -15.299,-23.504 1.091,-7.182 8.107,-12.353 15.292,-13.415 7.187,-1.062 14.445,1.156 21.171,3.899 2.004,0.817 4.072,1.747 5.408,3.449 4.123,5.258 -1.239,13.624 2.019,19.457 3.878,6.942 14.547,3.427 20.866,-1.397 4.293,-3.277 8.588,-7.068 10.271,-12.2 1.85,-5.643 0.197,-11.745 -0.361,-17.658 -0.558,-5.913 0.615,-12.912 5.83,-15.753 5.129,-2.793 11.622,-0.201 17.255,-1.743 12.159,6.141 14.547,23.518 8.776,35.856 -5.772,12.338 -17.205,20.876 -27.956,29.24 -2.739,2.13 -5.632,4.544 -6.413,7.924 -1.661,7.191 7.082,12.484 14.448,12.966 7.365,0.481 15.509,-1.037 21.555,3.195 5.592,3.914 7.288,11.526 6.863,18.338 -0.374,5.99 -2.732,12.689 -8.334,14.843 -5.511,2.119 -11.516,-1.047 -16.566,-4.106 L 33.761,17.64 c -1.241,-0.752 -2.594,-1.532 -4.04,-1.406 -1.418,0.124 -2.609,1.098 -3.597,2.121 -7.574,7.852 -8.273,19.868 -12.511,29.92 -6.063,14.385 -21.906,26.794 -37.83,26.12 -6.037,-13.501 13.01,-21.758 5.2,-32.858 -4.539,-6.452 -20.198,-3.985 -26.477,-8.294 C -78.445,10.631 -4.699,12.379 0,0"
             style="fill:#17181f;fill-opacity:1;fill-rule:evenodd;stroke:none"
             id="path284"
             inkscape:connector-curvature="0" /></g><g
           id="g286"
           transform="translate(137.333,107.5724)"><path
             d="m 0,0 c 10.536,-2.448 15.9,-13.962 18.386,-23.34 2.486,-9.377 6.061,-20.672 16.225,-24.971 7.506,-3.175 15.665,-0.646 19.88,4.312 4.216,4.959 5.254,11.809 5.545,18.542 0.086,2.005 0.091,4.124 -0.984,6.108 -3.319,6.127 -13.872,6.664 -18.137,12.446 -5.076,6.88 3.078,13.157 10.59,15.341 5.102,1.485 10.709,2.683 16.472,1.113 6.337,-1.728 11.574,-6.419 17.111,-10.158 5.536,-3.74 12.9,-6.749 17.984,-4.308 4.998,2.401 5.334,8.868 9.331,12.358 C 111.772,20.275 95.832,31.842 81.214,34.284 66.595,36.728 53.191,32.668 40.258,29.039 36.965,28.115 33.325,27.23 29.674,28.518 c -7.768,2.74 -9.08,12.457 -6.295,18.418 2.785,5.96 7.87,11.404 6.403,18.445 C 28.425,71.891 21.73,77.46 14.88,80.942 8.855,84.005 1.263,85.931 -3.321,82.806 -7.829,79.733 -7.388,73.322 -6.628,67.708 -5.195,57.125 -3.763,46.541 -2.33,35.957 c 0.186,-1.38 0.351,-2.861 -0.411,-3.907 -0.747,-1.028 -2.226,-1.403 -3.665,-1.593 -11.027,-1.461 -23.088,4.721 -34.792,7.07 -16.749,3.363 -35.888,-1.938 -42.268,-14.621 10.536,-12.218 27.03,-2.118 34.435,-14.363 4.303,-7.117 -5.031,-17.838 -3.592,-25.101 C -45.072,-54.671 -14.185,3.294 0,0"
             style="fill:#17181f;fill-opacity:1;fill-rule:evenodd;stroke:none"
             id="path288"
             inkscape:connector-curvature="0" /></g><g
           id="g290"
           transform="translate(1212.6348,248.4416)"><path
             d="m 0,0 c 10.537,-2.447 15.9,-13.962 18.387,-23.34 2.485,-9.377 6.061,-20.671 16.224,-24.971 7.506,-3.175 15.665,-0.646 19.88,4.313 4.216,4.958 5.255,11.809 5.545,18.541 0.086,2.005 0.091,4.124 -0.983,6.108 -3.32,6.127 -13.873,6.664 -18.138,12.446 -5.075,6.88 3.078,13.158 10.591,15.341 5.102,1.485 10.708,2.683 16.471,1.113 6.337,-1.728 11.575,-6.419 17.111,-10.158 5.537,-3.74 12.9,-6.748 17.984,-4.307 4.998,2.4 5.334,8.867 9.331,12.358 -0.631,12.831 -16.57,24.398 -31.189,26.84 -14.618,2.444 -28.023,-1.616 -40.955,-5.244 -3.294,-0.925 -6.934,-1.81 -10.584,-0.522 -7.769,2.74 -9.08,12.457 -6.296,18.418 2.785,5.96 7.87,11.404 6.403,18.445 -1.356,6.511 -8.052,12.08 -14.901,15.561 -6.026,3.063 -13.618,4.989 -18.201,1.864 -4.509,-3.073 -4.068,-9.484 -3.308,-15.098 1.433,-10.583 2.865,-21.167 4.298,-31.751 0.187,-1.379 0.351,-2.86 -0.41,-3.907 -0.748,-1.028 -2.227,-1.403 -3.665,-1.593 -11.027,-1.461 -23.088,4.721 -34.793,7.07 C -57.947,40.89 -77.086,35.589 -83.466,22.906 -72.93,10.688 -56.436,20.788 -49.03,8.543 -44.727,1.427 -54.062,-9.295 -52.623,-16.558 -45.072,-54.671 -14.185,3.295 0,0"
             style="fill:#17181f;fill-opacity:1;fill-rule:evenodd;stroke:none"
             id="path292"
             inkscape:connector-curvature="0" /></g><g
           id="g294"
           transform="translate(268.8906,7.0861)"><path
             d="m 0,0 c 20.845,11.938 44.984,22.788 68.178,16.537 13.444,-3.623 27.161,-12.838 40.081,-7.648 6.185,2.483 10.638,7.851 15.498,12.412 8.907,8.356 20.611,14.599 32.806,13.933 12.196,-0.667 24.292,-9.856 25.38,-22.021 -12.488,3.118 -26.29,0.493 -36.761,-6.992 8.587,-6.221 15.51,-14.717 19.869,-24.383 -36.804,-1.002 -73.619,-1.591 -110.436,-1.769 -18.086,-0.087 -36.172,-0.074 -54.257,0.038 -10.612,0.066 -40.22,4.906 -47.188,-2.41 C -30.269,-19.613 -14.459,-8.281 0,0"
             style="fill:#17181f;fill-opacity:1;fill-rule:evenodd;stroke:none"
             id="path296"
             inkscape:connector-curvature="0" /></g><g
           id="g298"
           transform="translate(69.4102,347.8312)"><path
             d="m 0,0 c -0.394,-3.172 0.054,-6.66 2.203,-9.026 3.025,-3.332 8.269,-3.338 12.646,-2.289 12.608,3.02 23.276,13.094 27.014,25.508 4.514,14.994 -0.649,31.698 4.279,46.559 4.19,12.641 15.48,23.513 14.169,36.765 C 59.314,107.6 40.238,128.385 28.467,123.952 23.17,121.957 13.475,89.696 10.015,81.719 2.474,64.333 11.486,64.135 16.08,47.729 21.812,27.258 2.278,18.355 0,0"
             style="fill:#17181f;fill-opacity:1;fill-rule:evenodd;stroke:none"
             id="path300"
             inkscape:connector-curvature="0" /></g><g
           id="g302"
           transform="translate(819.6924,58.8849)"><path
             d="m 0,0 c -13.887,-17.632 -22.97,-40.785 -17.639,-62.588 0.909,-3.717 2.344,-7.517 5.285,-9.966 2.163,-1.8 4.923,-2.686 7.621,-3.488 15.003,-4.46 33.437,-6.714 44.338,4.517 3.709,3.821 6.027,8.815 7.422,13.955 3.41,12.552 1.617,25.858 -0.2,38.739 -1.593,11.305 0.2,36.421 -11.151,40.29 C 23.542,25.595 6.336,7.975 0,0"
             style="fill:#17181f;fill-opacity:1;fill-rule:evenodd;stroke:none"
             id="path304"
             inkscape:connector-curvature="0" /></g><g
           id="g306"
           transform="translate(137.5186,430.8766)"><path
             d="m 0,0 c -3.894,-0.297 -8.07,-0.79 -10.987,-3.386 -6.137,-5.464 -1.986,-16.554 5.403,-20.148 7.389,-3.592 16.091,-2.211 24.255,-1.288 12.385,1.4 24.91,1.545 37.324,0.435 3.459,-0.31 7.147,-0.819 9.746,-3.122 4.622,-4.096 3.567,-11.448 2.127,-17.453 -0.856,-3.569 -1.749,-7.224 -3.811,-10.259 -4.657,-6.857 -15.271,-11.52 -13.464,-19.608 1.206,-5.394 7.554,-7.76 13.046,-8.383 7.971,-0.905 16.742,0.208 22.614,5.673 6.691,6.229 7.894,16.343 7.464,25.476 -0.429,9.132 -2.035,18.509 0.613,27.259 2.466,8.151 8.413,14.924 10.753,23.113 2.86,10.004 -0.868,30.502 -13.728,27.587 C 85.215,24.504 78.902,8.148 72.313,4.222 53.295,-7.108 21.241,1.624 0,0"
             style="fill:#17181f;fill-opacity:1;fill-rule:evenodd;stroke:none"
             id="path308"
             inkscape:connector-curvature="0" /></g><g
           id="g310"
           transform="translate(1130.6475,109.2248)"><path
             d="m 0,0 c -3.894,-0.297 -8.07,-0.789 -10.987,-3.386 -6.137,-5.464 -1.987,-16.553 5.402,-20.147 7.389,-3.593 16.091,-2.211 24.256,-1.288 12.384,1.398 24.909,1.545 37.323,0.434 3.459,-0.309 7.148,-0.818 9.746,-3.122 4.622,-4.095 3.568,-11.447 2.127,-17.453 -0.855,-3.568 -1.749,-7.224 -3.81,-10.259 -4.657,-6.856 -15.272,-11.519 -13.464,-19.607 1.205,-5.395 7.553,-7.761 13.046,-8.384 7.97,-0.904 16.742,0.208 22.613,5.674 6.691,6.228 7.894,16.343 7.465,25.475 -0.43,9.132 -2.035,18.509 0.612,27.259 2.466,8.152 8.413,14.924 10.754,23.113 2.86,10.004 -0.868,30.503 -13.729,27.587 C 85.214,24.504 78.902,8.148 72.313,4.223 53.295,-7.107 21.24,1.624 0,0"
             style="fill:#17181f;fill-opacity:1;fill-rule:evenodd;stroke:none"
             id="path312"
             inkscape:connector-curvature="0" /></g><g
           id="g314"
           transform="translate(1151.7773,449.6593)"><path
             d="m 0,0 c -3.894,-0.298 -8.07,-0.79 -10.986,-3.386 -6.137,-5.464 -1.988,-16.554 5.402,-20.147 7.389,-3.594 16.091,-2.211 24.255,-1.289 12.385,1.399 24.91,1.545 37.323,0.434 3.459,-0.309 7.149,-0.818 9.747,-3.121 4.621,-4.096 3.568,-11.448 2.127,-17.453 -0.855,-3.568 -1.749,-7.225 -3.811,-10.26 -4.657,-6.855 -15.271,-11.518 -13.463,-19.606 1.205,-5.396 7.552,-7.761 13.046,-8.384 7.97,-0.905 16.742,0.207 22.613,5.673 6.691,6.229 7.894,16.344 7.465,25.476 -0.43,9.131 -2.036,18.508 0.611,27.259 2.467,8.151 8.413,14.924 10.754,23.112 2.86,10.005 -0.867,30.503 -13.729,27.588 C 85.215,24.504 78.902,8.148 72.313,4.222 53.295,-7.108 21.24,1.623 0,0"
             style="fill:#17181f;fill-opacity:1;fill-rule:evenodd;stroke:none"
             id="path316"
             inkscape:connector-curvature="0" /></g><g
           id="g318"
           transform="translate(787.5801,750.3854)"><path
             d="m 0,0 c 8.774,-13.505 -2.189,-31.42 0.217,-47.345 0.39,-2.585 1.376,-5.405 3.733,-6.533 3.03,-1.451 6.505,0.61 9.185,2.637 12.414,9.39 24.963,22.447 23.482,37.941 -0.981,10.283 -8.164,19.468 -7.867,29.794 0.23,7.984 4.908,15.13 6.611,22.936 C 41.503,67.605 -3.297,55.602 -17.208,49.742 -57.299,32.856 -9.453,14.549 0,0"
             style="fill:#17181f;fill-opacity:1;fill-rule:evenodd;stroke:none"
             id="path320"
             inkscape:connector-curvature="0" /></g></g></g></g></svg>